<svg fill="none" height="105" viewBox="0 0 126 105" width="126" xmlns="http://www.w3.org/2000/svg" xmlns:xlink="http://www.w3.org/1999/xlink"><filter id="a" color-interpolation-filters="sRGB" filterUnits="userSpaceOnUse" height="65.0481" width="65.0481" x="14.6543" y="36.9508"><feFlood flood-opacity="0" result="BackgroundImageFix"/><feBlend in="SourceGraphic" in2="BackgroundImageFix" mode="normal" result="shape"/><feGaussianBlur result="effect1_foregroundBlur_1_117" stdDeviation="10"/></filter><filter id="b" color-interpolation-filters="sRGB" filterUnits="userSpaceOnUse" height="131.029" width="129.498" x="14.0866" y="-15.3286"><feFlood flood-opacity="0" result="BackgroundImageFix"/><feGaussianBlur in="BackgroundImageFix" stdDeviation="12"/><feComposite in2="SourceAlpha" operator="in" result="effect1_backgroundBlur_1_117"/><feBlend in="SourceGraphic" in2="effect1_backgroundBlur_1_117" mode="normal" result="shape"/></filter><linearGradient id="c" gradientUnits="userSpaceOnUse" x1="12.2127" x2="78.5567" y1="60.1216" y2="122.282"><stop offset="0" stop-color="#ffa78f"/><stop offset="1" stop-color="#f23e2c"/></linearGradient><linearGradient id="d" gradientUnits="userSpaceOnUse" x1="57.0936" x2="88.9815" y1="11.9352" y2="85.6844"><stop offset="0" stop-color="#fff" stop-opacity=".25"/><stop offset="1" stop-color="#fff" stop-opacity="0"/></linearGradient><path d="m61.1007 64.9845c-.506 1.0434-.4658 2.271.1044 3.2814l8.1024 13.8832c.6857 1.1771.6186 2.6456-.1703 3.7579-.7578 1.1317-2.0992 1.7233-3.4461 1.5298l-15.9222-2.1015c-.5555-.0782-1.1205-.0228-1.6546.1548l-.8186.2983c-.2686.1458-.5135.3377-.7166.5692l-10.8264 11.8886c-.5404.5734-1.2466.9643-2.0236 1.114-1.9116.3135-3.7257-.9553-4.0878-2.8595l-2.7286-15.8419c-.217-1.1494-.9783-2.121-2.0415-2.6061l-14.7614-6.5968c-1.23484-.5526-2.03646-1.7661-2.0567-3.1173-.03122-1.3437.68368-2.5933 1.85968-3.2443l14.21922-7.65c1.0989-.534 1.8486-1.5943 1.9877-2.8085l1.6719-15.9743c.047-.3594.1481-.7111.3069-1.0358l.1948-.3106c.0847-.2088.2005-.3982.3432-.57l.2852-.2408.4365-.3986 1.2717-.4635c1.1787-.2962 2.4263.019 3.3189.8435l11.6245 11.0596c.8433.8116 2.0327 1.1549 3.1777.9258l15.8069-3.2941c1.3348-.2812 2.7144.2084 3.5747 1.2636.8372 1.0671.9803 2.5206.3681 3.7327z" fill="url(#c)"/><g filter="url(#a)" opacity=".5"><path d="m47.1784 56.9508c-6.9133 0-12.5241 5.6121-12.5241 12.5241 0 6.9145 5.6108 12.5241 12.5241 12.5241 6.9258 0 12.524-5.6096 12.524-12.5241 0-6.912-5.5982-12.5241-12.524-12.5241z" fill="#ff3d22"/></g><g filter="url(#b)"><path d="m97.9668 62.6509c-1.2755.7363-2.108 2.0555-2.2286 3.524l-1.3753 20.369c-.118 1.726-1.2349 3.2221-2.8568 3.8292-1.6032.6497-3.435.3157-4.7131-.8475l-15.2411-13.5555c-.5283-.4779-1.1617-.8224-1.8498-1.0163l-1.0732-.2697c-.3862-.0381-.7804-.0108-1.1588.0878l-19.8534 4.7833c-.9768.2177-1.9977.1253-2.9213-.2709-2.233-1.0327-3.236-3.6593-2.2598-5.9191l8.4206-18.5987c.5909-1.363.4828-2.9269-.2891-4.1945l-10.8175-17.4541c-.9044-1.4609-.8824-3.3078.0592-4.7427.9248-1.4349 2.5667-2.2391 4.267-2.0855l20.3998 2.0904c1.5357.2217 3.0794-.3588 4.091-1.5361l13.1409-15.6021c.3055-.3443.6624-.6419 1.0608-.8702l.426-.1877c.2379-.1592.4946-.27571.767-.35461l.4715-.04994.7429-.10805 1.6672.4189c1.4503.5287 2.5372 1.7491 2.888 3.2519l4.3395 19.9103c.3083 1.4542 1.314 2.6627 2.681 3.2377l18.9646 7.8011c1.604.6556 2.705 2.1533 2.858 3.8757.119 1.7184-.766 3.3485-2.273 4.1865z" fill="#ffac95" fill-opacity=".4"/><path d="m94.8617 86.5779.0001-.0004 1.3747-20.3617c.0001-.0012.0002-.0025.0003-.0037.1083-1.3033.8473-2.4733 1.9777-3.1268.0007-.0005.0015-.0009.0023-.0013l18.3272-10.2935c0-.0003.001-.0006.001-.0009 1.676-.9324 2.661-2.7456 2.527-4.6574h.001l-.001-.0093c-.169-1.9081-1.389-3.5675-3.166-4.2941 0-.0001 0-.0002-.001-.0003l-18.9597-7.7991c-.0006-.0003-.0011-.0005-.0017-.0007-1.2162-.5123-2.1101-1.5876-2.384-2.8799l-.0006-.0028-4.3396-19.9103-.0016-.0072c-.3894-1.6681-1.5957-3.0218-3.2036-3.60792-.0162-.0059-.0327-.01096-.0494-.01516l-1.6673-.41895c-.0633-.01591-.1292-.01926-.1938-.00987l-.7333.10665-.4618.04892c-.0292.0031-.0581.00877-.0864.01695-.3046.08823-.5956.21772-.8678.3942l-.3877.17075c-.0161.00709-.0318.01502-.047.02377-.4492.25736-.8477.59066-1.1862.97226l-.0001-.0001-.0083.0098-13.1377 15.5983c-.0006.0006-.0011.0013-.0016.0019-.9004 1.0466-2.2734 1.5623-3.6388 1.3652-.0021-.0003-.0042-.0006-.0064-.0009-.0047-.0006-.0094-.0012-.0141-.0016l-20.3997-2.0904v-.0001l-.006-.0005c-1.8854-.1703-3.7058.7212-4.7312 2.3109-1.0474 1.5978-1.0711 3.6535-.0651 5.2785l.0001.0002 10.8155 17.4508c.0003.0006.0006.0011.001.0017.6858 1.1274.7822 2.5177.2579 3.7303-.0005.0012-.001.0024-.0016.0036l-8.4173 18.5913v-.0001l-.0035.008c-1.0837 2.5086.0296 5.4246 2.509 6.5712l-.0001.0002.0128.0055c1.0207.4379 2.1487.5398 3.2271.2994v.0001l.0084-.002 19.8534-4.7833.0089-.0023c.3072-.08.6294-.1048.9483-.0773l1.0288.2586c.6138.174 1.1758.4809 1.6432.9039l.0032.0029 15.2369 13.5516c.0006.0006.0013.0012.002.0018 1.4174 1.2886 3.4484 1.6606 5.2288.9419 1.8019-.6771 3.0432-2.3411 3.1744-4.2612z" stroke="url(#d)" stroke-linecap="round" stroke-linejoin="round"/></g></svg>