<svg fill="none" height="105" viewBox="0 0 102 105" width="102" xmlns="http://www.w3.org/2000/svg" xmlns:xlink="http://www.w3.org/1999/xlink"><filter id="a" color-interpolation-filters="sRGB" filterUnits="userSpaceOnUse" height="56.5705" width="64.2755" x="3.60095" y="18.6376"><feFlood flood-opacity="0" result="BackgroundImageFix"/><feBlend in="SourceGraphic" in2="BackgroundImageFix" mode="normal" result="shape"/><feGaussianBlur result="effect1_foregroundBlur_1_295" stdDeviation="7.5"/></filter><filter id="b" color-interpolation-filters="sRGB" filterUnits="userSpaceOnUse" height="70.8565" width="77.8014" x="20.9397" y="2.45425"><feFlood flood-opacity="0" result="BackgroundImageFix"/><feGaussianBlur in="BackgroundImageFix" stdDeviation="7.5"/><feComposite in2="SourceAlpha" operator="in" result="effect1_backgroundBlur_1_295"/><feColorMatrix in="SourceAlpha" result="hardAlpha" type="matrix" values="0 0 0 0 0 0 0 0 0 0 0 0 0 0 0 0 0 0 127 0"/><feOffset dx="5" dy="5"/><feGaussianBlur stdDeviation="5"/><feColorMatrix type="matrix" values="0 0 0 0 0.577356 0 0 0 0 0.359375 0 0 0 0 0.9375 0 0 0 0.5 0"/><feBlend in2="effect1_backgroundBlur_1_295" mode="normal" result="effect2_dropShadow_1_295"/><feBlend in="SourceGraphic" in2="effect2_dropShadow_1_295" mode="normal" result="shape"/></filter><filter id="c" color-interpolation-filters="sRGB" filterUnits="userSpaceOnUse" height="112.888" width="123.528" x="-8.38318" y="12.7527"><feFlood flood-opacity="0" result="BackgroundImageFix"/><feGaussianBlur in="BackgroundImageFix" stdDeviation="12"/><feComposite in2="SourceAlpha" operator="in" result="effect1_backgroundBlur_1_295"/><feBlend in="SourceGraphic" in2="effect1_backgroundBlur_1_295" mode="normal" result="shape"/></filter><filter id="d" color-interpolation-filters="sRGB" filterUnits="userSpaceOnUse" height="45.7914" width="39.6831" x="33.5426" y="46.298"><feFlood flood-opacity="0" result="BackgroundImageFix"/><feGaussianBlur in="BackgroundImageFix" stdDeviation="7.5"/><feComposite in2="SourceAlpha" operator="in" result="effect1_backgroundBlur_1_295"/><feColorMatrix in="SourceAlpha" result="hardAlpha" type="matrix" values="0 0 0 0 0 0 0 0 0 0 0 0 0 0 0 0 0 0 127 0"/><feOffset dx="5" dy="5"/><feGaussianBlur stdDeviation="5"/><feColorMatrix type="matrix" values="0 0 0 0 0.577356 0 0 0 0 0.359375 0 0 0 0 0.9375 0 0 0 0.5 0"/><feBlend in2="effect1_backgroundBlur_1_295" mode="normal" result="effect2_dropShadow_1_295"/><feBlend in="SourceGraphic" in2="effect2_dropShadow_1_295" mode="normal" result="shape"/></filter><linearGradient id="e" gradientUnits="userSpaceOnUse" x1="26.8649" x2="40.3294" y1="5.72242" y2="68.934"><stop offset="0" stop-color="#bc94ff"/><stop offset="1" stop-color="#9f66ff"/></linearGradient><linearGradient id="f"><stop offset="0" stop-color="#fff"/><stop offset="1" stop-color="#fff" stop-opacity=".2"/></linearGradient><linearGradient id="g" gradientUnits="userSpaceOnUse" x1="84.082" x2="35.1718" xlink:href="#f" y1="29.6702" y2="18.1472"/><linearGradient id="h"><stop offset="0" stop-color="#fff" stop-opacity=".25"/><stop offset="1" stop-color="#fff" stop-opacity="0"/></linearGradient><linearGradient id="i" gradientUnits="userSpaceOnUse" x1="51.2529" x2="62.3756" xlink:href="#h" y1="18.1301" y2="55.415"/><linearGradient id="j" gradientUnits="userSpaceOnUse" x1="36.2099" x2="53.324" xlink:href="#h" y1="42.782" y2="100.163"/><linearGradient id="k" gradientUnits="userSpaceOnUse" x1="57.7691" x2="49.9419" xlink:href="#f" y1="65.0823" y2="63.0137"/><linearGradient id="l" gradientUnits="userSpaceOnUse" x1="52.6642" x2="59.9336" xlink:href="#h" y1="62.5806" y2="69.8041"/><mask id="m" fill="#000" height="74.3053" maskUnits="userSpaceOnUse" width="84.7043" x="11.2085" y="32.4831"><path d="m11.2085 32.4831h84.7043v74.3053h-84.7043z" fill="#fff"/><path d="m77.3334 47.7355-33.2745-9.3189c-9.2696-2.596-18.8435 2.6489-21.3823 11.7141l-5.4365 19.4119c-2.5388 9.0651 2.9184 18.5197 12.1879 21.1157l33.2745 9.3189c9.2696 2.5958 18.8435-2.6489 21.3823-11.7141l5.4365-19.4118c2.5388-9.0652-2.9183-18.5198-12.1879-21.1158z" fill="#000"/></mask><path clip-rule="evenodd" d="m47.9526 19.0589 1.0323 4.8462c5.8056.5397 10.8216 4.6227 12.0753 10.5086l3.3236 15.6034c1.5521 7.2866-3.2304 14.4812-10.6781 16.0677l-26.7493 5.6977c-7.4509 1.5871-14.7503-3.0339-16.3024-10.3206l-3.32365-15.6034c-1.25372-5.8859 1.66612-11.6593 6.74465-14.5173l-1.0323-4.8462c-1.9749-9.4293 4.2035-18.72373 13.774-20.76232 9.699-2.06595 19.1289 3.90383 21.1359 13.32622zm-19.901-7.8439c6.5196-1.38868 12.9225 2.6649 14.2806 9.0407l.8871 4.1647-23.6694 5.0417-.9004-4.2275c-1.3193-6.3512 2.8826-12.6309 9.4021-14.0196zm11.3552 39.5946c.3278 1.539-.6638 3.0307-2.2375 3.3659-1.5416.3284-3.055-.6298-3.3828-2.1687l-1.4852-6.9726c-.3212-1.5076.6705-2.9993 2.212-3.3276 1.5737-.3352 3.0871.6229 3.4082 2.1304z" fill="url(#e)" fill-rule="evenodd"/><g filter="url(#a)" opacity=".5"><rect fill="#8237ff" height="22.1302" rx="5" transform="matrix(.97719554 -.21234141 .21234141 .97719554 -7.991089 4.650181)" width="32.204" x="17.6543" y="39.5292"/></g><g filter="url(#b)"><path d="m82.936 45.6195-3.5543 12.6912c-1.289-.7824-2.7126-1.3918-4.2309-1.817l-2.5971-.7273 3.3902-12.1052c2.2214-7.9319-2.5655-16.2255-10.6764-18.497s-16.4981 2.2903-18.7485 10.172l-3.4121 12.1833-2.5571-.7162c-1.5583-.4364-3.0913-.655-4.6101-.6168l3.5652-12.7304c3.3229-11.7109 15.6911-18.4868 27.5977-15.1522 12.0664 3.3793 19.1163 15.5934 15.8334 27.3156z" fill="url(#g)"/><path d="m82.7434 45.5655-3.4838 12.4397c-1.2451-.7279-2.6081-1.2989-4.0549-1.7041l-2.4045-.6734 3.3363-11.9125c2.2523-8.0424-2.6019-16.4434-10.8151-18.7436-8.2123-2.2999-16.7128 2.3177-18.9948 10.3097l-.0002.001-3.3582 11.9907-2.3645-.6622c-1.4826-.4153-2.9462-.6364-4.3992-.6284l3.4929-12.472c3.2921-11.6016 15.5477-18.3196 27.3513-15.0139 11.9646 3.3508 18.9466 15.4577 15.6947 27.069z" stroke="url(#i)" stroke-width=".4"/></g><g filter="url(#c)"><path d="m77.3334 47.7355-33.2745-9.3189c-9.2696-2.596-18.8435 2.6489-21.3823 11.7141l-5.4365 19.4119c-2.5388 9.0651 2.9184 18.5197 12.1879 21.1157l33.2745 9.3189c9.2696 2.5958 18.8435-2.6489 21.3823-11.7141l5.4365-19.4118c2.5388-9.0652-2.9183-18.5198-12.1879-21.1158z" fill="#ba90ff" fill-opacity=".35"/><path d="m44.0589 38.4166-.2697.9629zm-14.6309 52.2417-.2697.963zm33.2745 9.3189.2697-.9629zm14.9006-53.2047c-.5318-.1489-1.0837.1615-1.2326.6933-.149.5318.1614 1.0837.6932 1.2326zm0 0-33.2745-9.3189-.5394 1.9259 33.2745 9.3189zm-33.2745-9.3189c-9.781-2.7392-19.9216 2.7903-22.6149 12.4074l1.9259.5394c2.3842-8.5132 11.3915-13.4737 20.1496-11.0209zm-22.6149 12.4074-5.4365 19.4119 1.9259.5393 5.4365-19.4118zm-5.4365 19.4119c-2.6934 9.6171 3.1001 19.6091 12.8811 22.3484l.5394-1.9259c-8.7581-2.4528-13.8788-11.37-11.4946-19.8832zm12.8811 22.3484 33.2746 9.3187.5393-1.9257-33.2745-9.3189zm33.2746 9.3187c9.781 2.739 19.9215-2.7901 22.6149-12.4072l-1.9259-.5393c-2.3842 8.5131-11.3916 13.4735-20.1497 11.0208zm22.6149-12.4072 5.4365-19.4119-1.9259-.5393-5.4365 19.4119zm5.4365-19.4119c2.6933-9.6171-3.1002-19.6091-12.8812-22.3484l-.5394 1.9259c8.7581 2.4528 13.8789 11.37 11.4947 19.8832z" fill="url(#j)" mask="url(#m)"/></g><g filter="url(#d)"><path d="m55.668 74.4937c-.5362 1.9147-2.5213 3.0021-4.4791 2.4538-1.9178-.5371-3.0493-2.4974-2.5131-4.412l2.4294-8.6744c.5253-1.8755 2.5103-2.963 4.4281-2.4259 1.9578.5483 3.0893 2.5086 2.564 4.3841z" fill="url(#k)"/><path d="m55.4754 74.4398c-.5053 1.8042-2.377 2.8348-4.2325 2.3151-1.8141-.508-2.8802-2.3598-2.3745-4.1654l2.4294-8.6744c.4943-1.7652 2.3661-2.7958 4.1816-2.2873 1.857.5201 2.9193 2.3739 2.4253 4.1376z" stroke="url(#l)" stroke-width=".4"/></g></svg>