<svg height="400" viewBox="0 0 400 400.00001" width="400" xmlns="http://www.w3.org/2000/svg"><g transform="translate(0 -652.36)"><circle cx="199.99959" cy="852.35999" fill="#ff8282" r="197.29538"/><path d="m199.99908 694.52368c-87.05304 0-157.836303 70.78264-157.836303 157.8363 0 87.05382 70.783263 157.83632 157.836303 157.83632 87.05303 0 157.8363-70.7825 157.8363-157.83632 0-87.05366-70.78327-157.8363-157.8363-157.8363zm0 19.72954c34.63717 0 66.2581 12.68893 90.47492 33.68053l-194.900998 194.90163c-20.992228-24.21809-33.680688-55.83791-33.680688-90.4754 0-76.39103 61.715576-138.10676 138.106766-138.10676zm104.42607 47.63136c20.99223 24.21809 33.68069 55.83791 33.68069 90.4754 0 76.39119-61.71557 138.10676-138.10676 138.10676-34.63718 0-66.25653-12.68893-90.47493-33.68053z" fill="#fff"/></g></svg>