<svg fill="none" height="103" viewBox="0 0 90 103" width="90" xmlns="http://www.w3.org/2000/svg" xmlns:xlink="http://www.w3.org/1999/xlink"><filter id="a" color-interpolation-filters="sRGB" filterUnits="userSpaceOnUse" height="83.0855" width="79.6501" x="2.11621" y="3.44244"><feFlood flood-opacity="0" result="BackgroundImageFix"/><feBlend in="SourceGraphic" in2="BackgroundImageFix" mode="normal" result="shape"/><feGaussianBlur result="effect1_foregroundBlur_1_83" stdDeviation="7.5"/></filter><filter id="b" color-interpolation-filters="sRGB" filterUnits="userSpaceOnUse" height="130.892" width="115.215" x="-1.25293" y="-4.47656"><feFlood flood-opacity="0" result="BackgroundImageFix"/><feGaussianBlur in="BackgroundImageFix" stdDeviation="12"/><feComposite in2="SourceAlpha" operator="in" result="effect1_backgroundBlur_1_83"/><feBlend in="SourceGraphic" in2="effect1_backgroundBlur_1_83" mode="normal" result="shape"/></filter><filter id="c" color-interpolation-filters="sRGB" filterUnits="userSpaceOnUse" height="36" width="61" x="25.667" y="25.834"><feFlood flood-opacity="0" result="BackgroundImageFix"/><feGaussianBlur in="BackgroundImageFix" stdDeviation="7.5"/><feComposite in2="SourceAlpha" operator="in" result="effect1_backgroundBlur_1_83"/><feColorMatrix in="SourceAlpha" result="hardAlpha" type="matrix" values="0 0 0 0 0 0 0 0 0 0 0 0 0 0 0 0 0 0 127 0"/><feOffset dx="5" dy="5"/><feGaussianBlur stdDeviation="5"/><feColorMatrix type="matrix" values="0 0 0 0 1 0 0 0 0 0.521569 0 0 0 0 0.133333 0 0 0 0.5 0"/><feBlend in2="effect1_backgroundBlur_1_83" mode="normal" result="effect2_dropShadow_1_83"/><feBlend in="SourceGraphic" in2="effect2_dropShadow_1_83" mode="normal" result="shape"/></filter><linearGradient id="d" gradientUnits="userSpaceOnUse" x1="27.8882" x2="53.7843" y1="10.3584" y2="80.0789"><stop offset="0" stop-color="#ffb37f"/><stop offset="1" stop-color="#ff7b0d"/></linearGradient><linearGradient id="e"><stop offset="0" stop-color="#fff" stop-opacity=".25"/><stop offset="1" stop-color="#fff" stop-opacity="0"/></linearGradient><linearGradient id="f" gradientUnits="userSpaceOnUse" x1="34.1282" x2="86.9141" xlink:href="#e" y1="29.9475" y2="82.6535"/><linearGradient id="g" gradientUnits="userSpaceOnUse" x1="69.4691" x2="35.8552" y1="41.9175" y2="47.5799"><stop offset="0" stop-color="#fff"/><stop offset="1" stop-color="#fff" stop-opacity=".2"/></linearGradient><linearGradient id="h" gradientUnits="userSpaceOnUse" x1="45.6017" x2="46.7962" xlink:href="#e" y1="41.533" y2="49.1769"/><path clip-rule="evenodd" d="m17.065 14.3784 21.5234-7.9944c9.4396-3.50611 18.4761-2.63354 22.0997 6.8397l19.6467 52.8951c.217.596.2864 1.2355.2021 1.8632-.1306 1.0213-.6689 1.9433-1.491 2.5544-.8222.6111-1.8577.8587-2.8687.686l-26.7981-2.9096-18.4316 19.7089c-1.3644 1.5624-3.7263 1.7349-5.3143.388-.4779-.4314-.8464-.9713-1.0746-1.5744l-9.3727-25.2344c-.0085-.0222-.017-.0445-.0253-.0669l-10.24893-27.5934c-3.53134-9.5075 2.74452-16.0675 12.15333-19.5622z" fill="url(#d)" fill-rule="evenodd"/><g filter="url(#a)" opacity=".5"><path d="m45.4627 19.0086-19.5743 5.2449c-7.1002 1.9025-10.1202 7.1675-8.2114 14.291l6.4646 24.1263c1.94 7.2403 7.1629 10.1965 14.263 8.294l19.5744-5.2449c7.2146-1.9332 10.1428-7.0734 8.2028-14.3137l-6.4646-24.1264c-1.9088-7.1235-7.0399-10.2044-14.2545-8.2712z" fill="#eb6f0a"/></g><g filter="url(#b)"><path clip-rule="evenodd" d="m54.7558 87.2405-24.9611 13.6745c-1.9929 1.036-4.4482.303-5.5469-1.6562-.3178-.6069-.4893-1.2796-.5007-1.9646v-60.5923c0-11.556 7.8966-16.1785 19.2601-16.1785h26.6945c11.0168 0 19.2601 4.3143 19.2601 15.4081v61.3627c0 1.0932-.4342 2.1415-1.2072 2.9148-.773.773-1.8213 1.207-2.9145 1.207-.6972-.011-1.3826-.182-2.003-.501l-25.1152-13.6745c-.9255-.5-2.0406-.5-2.9661 0z" fill="#ffcbb9" fill-opacity=".35" fill-rule="evenodd"/><path d="m30.0253 101.359h.0001l.0096-.005 24.9585-13.6736c.0004-.0003.0008-.0005.0013-.0007.7768-.4191 1.7125-.419 2.4891.0005.0001.0001.0003.0001.0004.0002l25.1137 13.6736h-.0001l.0109.006c.6887.353 1.4495.544 2.2234.556h.0079c1.2258 0 2.4013-.487 3.2681-1.354.8667-.8665 1.3536-2.042 1.3536-3.2678v-61.3627c0-5.688-2.1231-9.7003-5.7074-12.2705-3.5571-2.5508-8.4917-3.6376-14.0527-3.6376h-26.6945c-5.7373 0-10.6785 1.165-14.1954 3.8588-3.5403 2.7117-5.5647 6.9163-5.5647 12.8197l-.0001 60.5923.0001.0084c.0127.7629.2038 1.5123.5578 2.1882l.0068.0126c1.2308 2.1946 3.9811 3.0156 6.2136 1.8556z" stroke="url(#f)" stroke-linecap="round" stroke-linejoin="round"/></g><g filter="url(#c)"><path d="m68.9909 46.834h-25.6479c-1.4779 0-2.676-1.3432-2.676-3 0-1.6569 1.1981-3 2.676-3h25.6479c1.478 0 2.6761 1.3431 2.6761 3 0 1.6568-1.1981 3-2.6761 3z" fill="url(#g)"/><path d="m68.9909 46.634h-25.6479c-1.3466 0-2.476-1.2315-2.476-2.8s1.1294-2.8 2.476-2.8h25.6479c1.3467 0 2.4761 1.2315 2.4761 2.8s-1.1294 2.8-2.4761 2.8z" stroke="url(#h)" stroke-width=".4"/></g></svg>