<svg fill="none" height="95" viewBox="0 0 108 95" width="108" xmlns="http://www.w3.org/2000/svg" xmlns:xlink="http://www.w3.org/1999/xlink"><filter id="a" color-interpolation-filters="sRGB" filterUnits="userSpaceOnUse" height="79.0987" width="85.3713" x=".386353" y=".978333"><feFlood flood-opacity="0" result="BackgroundImageFix"/><feBlend in="SourceGraphic" in2="BackgroundImageFix" mode="normal" result="shape"/><feGaussianBlur result="effect1_foregroundBlur_1_538" stdDeviation="8.5"/></filter><filter id="b" color-interpolation-filters="sRGB" filterUnits="userSpaceOnUse" height="105.5" width="113.667" x="9.28125" y="3.99994"><feFlood flood-opacity="0" result="BackgroundImageFix"/><feGaussianBlur in="BackgroundImageFix" stdDeviation="7.5"/><feComposite in2="SourceAlpha" operator="in" result="effect1_backgroundBlur_1_538"/><feBlend in="SourceGraphic" in2="effect1_backgroundBlur_1_538" mode="normal" result="shape"/></filter><filter id="c" color-interpolation-filters="sRGB" filterUnits="userSpaceOnUse" height="63.0383" width="72.6714" x="35.0663" y="30.1665"><feFlood flood-opacity="0" result="BackgroundImageFix"/><feGaussianBlur in="BackgroundImageFix" stdDeviation="7.5"/><feComposite in2="SourceAlpha" operator="in" result="effect1_backgroundBlur_1_538"/><feColorMatrix in="SourceAlpha" result="hardAlpha" type="matrix" values="0 0 0 0 0 0 0 0 0 0 0 0 0 0 0 0 0 0 127 0"/><feOffset dx="5" dy="5"/><feGaussianBlur stdDeviation="5"/><feColorMatrix type="matrix" values="0 0 0 0 1 0 0 0 0 0.447059 0 0 0 0 0.368627 0 0 0 0.5 0"/><feBlend in2="effect1_backgroundBlur_1_538" mode="normal" result="effect2_dropShadow_1_538"/><feBlend in="SourceGraphic" in2="effect2_dropShadow_1_538" mode="normal" result="shape"/></filter><linearGradient id="d"><stop offset="0" stop-color="#ffa78f"/><stop offset="1" stop-color="#f23e2c"/></linearGradient><linearGradient id="e" gradientUnits="userSpaceOnUse" x1="45.3773" x2="4.88921" xlink:href="#d" y1="41.9547" y2="85.9751"/><linearGradient id="f" gradientUnits="userSpaceOnUse" x1="38.2813" x2="103.311" y1="28.5628" y2="97.1121"><stop offset="0" stop-color="#fff" stop-opacity=".25"/><stop offset="1" stop-color="#fff" stop-opacity=".15"/></linearGradient><linearGradient id="g" gradientUnits="userSpaceOnUse" x1="89.7124" x2="42.2142" y1="51.1325" y2="53.1327"><stop offset="0" stop-color="#fff"/><stop offset="1" stop-color="#fff" stop-opacity=".2"/></linearGradient><linearGradient id="h" gradientUnits="userSpaceOnUse" x1="90.9094" x2="49.4713" y1="62.3845" y2="64.6141"><stop offset="0" stop-color="#fff"/><stop offset="1" stop-color="#fff" stop-opacity="0"/></linearGradient><linearGradient id="i" gradientUnits="userSpaceOnUse" x1="95.0383" x2="77.9997" xlink:href="#d" y1="14.1741" y2="19.9733"/><mask id="j" fill="#fff"><path clip-rule="evenodd" d="m85.3469 48.8782c0 2.0394 1.6334 3.6709 3.675 3.6709 2.0417 0 3.7159-1.6315 3.7159-3.6709s-1.6742-3.7117-3.7159-3.7117c-2.0416 0-3.675 1.6723-3.675 3.7117zm-7.9215 24.636c-2.8992 2.8959-6.9008 4.6906-11.3108 4.6906-4.2875 0-8.2892-1.6723-11.3517-4.6906-3.0217-3.0591-4.6958-7.0563-4.6958-11.3391-.0409-4.2419 1.6333-8.2392 4.655-11.2983 3.0625-3.0591 7.105-4.7314 11.3925-4.7314s8.33 1.6723 11.3516 4.6907c3.0217 3.0591 4.6959 7.0971 4.6959 11.339-.0409 4.4459-1.8375 8.4431-4.7367 11.3391zm-11.3109-21.2507c-2.6541 0-5.145 1.0197-7.0641 2.9367-1.8784 1.8763-2.8992 4.3643-2.8584 6.934v.0408c0 2.6512 1.0209 5.1393 2.8992 7.0155 1.8783 1.8763 4.3692 2.896 7.0233 2.896 5.4717 0 9.8817-4.4459 9.9225-9.9115 0-2.6513-1.0208-5.1393-2.8991-7.0156-1.8784-1.8762-4.3692-2.8959-7.0234-2.8959z" fill="#fff" fill-rule="evenodd"/></mask><path d="m40.8463 6.44422-24.6958 9.70968c-9.65611 3.7966-13.48509 13.1292-9.52057 23.2126l9.14977 23.2716c3.9533 10.0549 13.1131 14.2807 22.7692 10.4842l24.6958-9.7097c9.6562-3.7965 13.4567-13.118 9.5033-23.1729l-9.1497-23.2716c-3.9645-10.08339-13.0958-14.32041-22.752-10.52388z" fill="url(#e)"/><g filter="url(#a)" opacity=".5"><path d="m67.946 39.8493-6.197-15.7783c-2.2478-5.7232-7.433-7.5329-14.0751-4.9242l-22.4962 8.8356c-6.751 2.6515-9.2315 7.4721-6.9837 13.1952l6.1971 15.7783c2.2841 5.8154 7.3451 7.5653 14.0962 4.9137l22.4961-8.8355c6.6421-2.6088 9.2467-7.3694 6.9626-13.1848z" fill="#ff624d"/></g><g filter="url(#b)"><path d="m88.3279 33.2153-.4083-.8973c-1.1025-2.3249-2.3683-5.0169-3.1442-6.5669-1.8783-3.6709-5.1041-5.7103-9.065-5.7511h-19.2325c-3.9608.0408-7.1458 2.0802-9.0241 5.7511-.8167 1.6315-2.205 4.5683-3.3484 6.9748l-.245.4894c-.1225.3263-.4491.4895-.7758.4895-9.8408 0-17.8034 7.9944-17.8034 17.7835v24.2281c0 9.7892 7.9626 17.7836 17.8034 17.7836h46.06c9.8 0 17.8034-7.9944 17.8034-17.7836v-24.2281c0-9.7891-8.0034-17.7835-17.8034-17.7835-.3675 0-.6533-.204-.8167-.4895z" fill="#ffac95" fill-opacity=".4"/><path d="m88.3747 32.1109-.0033-.0072c-.1881-.3965-.381-.804-.5756-1.2151-.9443-1.9946-1.9274-4.071-2.5733-5.3613l-.002-.0039c-1.9591-3.8288-5.3499-5.9806-9.5049-6.0234h-.0052-19.2325-.0051c-4.1574.0428-7.5061 2.1967-9.4642 6.0233l-.002.004c-.7187 1.4358-1.877 3.8757-2.9211 6.0748-.1459.3073-.2895.61-.4295.9045l-.2427.4849c-.0078.0157-.0148.0317-.021.0481-.03.0799-.1286.1652-.3077.1652-10.1172 0-18.3034 8.2185-18.3034 18.2835v24.2281c0 10.0651 8.1862 18.2836 18.3034 18.2836h46.06c10.0756 0 18.3034-8.2178 18.3034-18.2836v-24.2281c0-10.0657-8.2278-18.2835-18.3034-18.2835-.1554 0-.2843-.0771-.3726-.2207z" stroke="url(#f)" stroke-linecap="round" stroke-linejoin="round"/></g><g filter="url(#c)"><path clip-rule="evenodd" d="m85.3469 48.8782c0 2.0394 1.6334 3.6709 3.675 3.6709 2.0417 0 3.7159-1.6315 3.7159-3.6709s-1.6742-3.7117-3.7159-3.7117c-2.0416 0-3.675 1.6723-3.675 3.7117zm-7.9215 24.636c-2.8992 2.8959-6.9008 4.6906-11.3108 4.6906-4.2875 0-8.2892-1.6723-11.3517-4.6906-3.0217-3.0591-4.6958-7.0563-4.6958-11.3391-.0409-4.2419 1.6333-8.2392 4.655-11.2983 3.0625-3.0591 7.105-4.7314 11.3925-4.7314s8.33 1.6723 11.3516 4.6907c3.0217 3.0591 4.6959 7.0971 4.6959 11.339-.0409 4.4459-1.8375 8.4431-4.7367 11.3391zm-11.3109-21.2507c-2.6541 0-5.145 1.0197-7.0641 2.9367-1.8784 1.8763-2.8992 4.3643-2.8584 6.934v.0408c0 2.6512 1.0209 5.1393 2.8992 7.0155 1.8783 1.8763 4.3692 2.896 7.0233 2.896 5.4717 0 9.8817-4.4459 9.9225-9.9115 0-2.6513-1.0208-5.1393-2.8991-7.0156-1.8784-1.8762-4.3692-2.8959-7.0234-2.8959z" fill="url(#g)" fill-rule="evenodd"/><path d="m77.4254 73.5142.1413.1415zm-22.6625 0-.1423.1405.0019.0019zm-4.6958-11.3391h.2v-.0019zm4.655-11.2983-.1414-.1415-.0009.001zm22.7441-.0407.1423-.1406-.0009-.0009zm4.6959 11.339.2.0019v-.0019zm-23.1117-6.9749.1413.1415zm-2.8584 6.934h.2001l-.0001-.0032zm2.8992 7.0563.1413-.1415zm16.9458-7.0155.2.0015v-.0015zm-2.8991-7.0156-.1414.1415zm15.884-2.8103c-1.9314 0-3.475-1.5422-3.475-3.4709h-.4c0 2.15 1.7231 3.8709 3.875 3.8709zm3.5159-3.4709c0 1.9258-1.5816 3.4709-3.5159 3.4709v.4c2.1491 0 3.9159-1.718 3.9159-3.8709zm-3.5159-3.5117c1.9315 0 3.5159 1.5829 3.5159 3.5117h.4c0-2.1501-1.7639-3.9117-3.9159-3.9117zm-3.475 3.5117c0-1.9316 1.5465-3.5117 3.475-3.5117v-.4c-2.1547 0-3.875 1.7645-3.875 3.9117zm-19.4323 29.5266c4.4653 0 8.5172-1.8174 11.4521-4.7491l-.2826-.283c-2.8634 2.8602-6.8149 4.6321-11.1695 4.6321zm-11.4921-4.7482c3.0991 3.0544 7.1509 4.7482 11.4921 4.7482v-.4c-4.2339 0-8.1854-1.6508-11.2113-4.6331zm-4.7554-11.4815c0 4.3365 1.6957 8.3839 4.7535 11.4796l.2846-.2811c-2.9855-3.0225-4.6381-6.9695-4.6381-11.1985zm4.7127-11.4388c-3.0576 3.0954-4.7541 7.1434-4.7127 11.4407l.4-.0038c-.0403-4.1865 1.6115-8.1331 4.5973-11.1558zm11.5348-4.7909c-4.3408 0-8.434 1.6936-11.5339 4.7899l.2827.283c3.0252-3.0218 7.0169-4.6729 11.2512-4.6729zm11.493 4.7492c-3.0593-3.0559-7.1527-4.7492-11.493-4.7492v.4c4.2346 0 8.2262 1.6514 11.2103 4.6322zm4.7545 11.4805c0-4.2954-1.6956-8.3837-4.7536-11.4796l-.2846.2811c2.9854 3.0223 4.6382 7.0101 4.6382 11.1985zm-4.7954 11.4806c2.9353-2.932 4.754-6.9789 4.7954-11.4787l-.4-.0037c-.0404 4.392-1.8149 8.3394-4.678 11.1994zm-18.375-18.314c1.8817-1.8796 4.3217-2.8782 6.9228-2.8782v-.4c-2.7072 0-5.2488 1.0408-7.2055 2.9952zm-2.7997 6.7893c-.0399-2.5139.9586-4.9502 2.7997-6.7893l-.2827-.283c-1.9155 1.9134-2.9587 4.4532-2.9169 7.0787zm0 .044v-.0408h-.4v.0408zm2.8405 6.874c-1.8404-1.8384-2.8405-4.2754-2.8405-6.874h-.4c0 2.7038 1.0416 5.2429 2.9579 7.157zm6.882 2.8375c-2.6017 0-5.0415-.9991-6.882-2.8375l-.2826.283c1.9162 1.9141 4.458 2.9545 7.1646 2.9545zm9.7226-9.713c-.0401 5.3574-4.3625 9.713-9.7226 9.713v.4c5.5833 0 10.0809-4.5363 10.1225-10.11zm-2.8406-6.8726c1.8405 1.8384 2.8405 4.2754 2.8405 6.8741h.4c0-2.7038-1.0415-5.2429-2.9578-7.1571zm-6.882-2.8374c2.6018 0 5.0416.999 6.882 2.8374l.2827-.283c-1.9162-1.9141-4.4581-2.9544-7.1647-2.9544z" fill="url(#h)" fill-opacity=".5" mask="url(#j)"/></g><path d="m99.6169 0h-9.2645c-.2113 0-.3998.132836-.4709.331833l-4.6429 12.999967c-.1163.3257.1251.6682.4709.6682h6.0766c.347 0 .5885.3448.4699.6709l-2.9177 8.0238c-.1861.5117.4639.9101.8354.512l11.5413-12.3655c.298-.3197.072-.8412-.366-.8412h-5.9659c-.3887 0-.6287-.42399-.4288-.75725l5.0917-8.485502c.2-.333262-.04-.757248-.4291-.757248z" fill="url(#i)"/></svg>