<svg fill="none" height="96" viewBox="0 0 104 96" width="104" xmlns="http://www.w3.org/2000/svg" xmlns:xlink="http://www.w3.org/1999/xlink"><filter id="a" color-interpolation-filters="sRGB" filterUnits="userSpaceOnUse" height="75.3333" width="75.3333" x="28.0362" y="20.6523"><feFlood flood-opacity="0" result="BackgroundImageFix"/><feBlend in="SourceGraphic" in2="BackgroundImageFix" mode="normal" result="shape"/><feGaussianBlur result="effect1_foregroundBlur_1_106" stdDeviation="8.5"/></filter><filter id="b" color-interpolation-filters="sRGB" filterUnits="userSpaceOnUse" height="131.544" width="131.667" x="-24" y="-24"><feFlood flood-opacity="0" result="BackgroundImageFix"/><feGaussianBlur in="BackgroundImageFix" stdDeviation="12"/><feComposite in2="SourceAlpha" operator="in" result="effect1_backgroundBlur_1_106"/><feBlend in="SourceGraphic" in2="effect1_backgroundBlur_1_106" mode="normal" result="shape"/></filter><filter id="c" color-interpolation-filters="sRGB" filterUnits="userSpaceOnUse" height="40.4539" width="78.1025" x="2.70117" y="21.6465"><feFlood flood-opacity="0" result="BackgroundImageFix"/><feGaussianBlur in="BackgroundImageFix" stdDeviation="7.5"/><feComposite in2="SourceAlpha" operator="in" result="effect1_backgroundBlur_1_106"/><feColorMatrix in="SourceAlpha" result="hardAlpha" type="matrix" values="0 0 0 0 0 0 0 0 0 0 0 0 0 0 0 0 0 0 127 0"/><feOffset dx="5" dy="5"/><feGaussianBlur stdDeviation="5"/><feColorMatrix type="matrix" values="0 0 0 0 0.577356 0 0 0 0 0.359375 0 0 0 0 0.9375 0 0 0 0.5 0"/><feBlend in2="effect1_backgroundBlur_1_106" mode="normal" result="effect2_dropShadow_1_106"/><feBlend in="SourceGraphic" in2="effect2_dropShadow_1_106" mode="normal" result="shape"/></filter><linearGradient id="d" gradientUnits="userSpaceOnUse" x1="66" x2="66" y1="26" y2="89.9041"><stop offset="0" stop-color="#bc94ff"/><stop offset="1" stop-color="#9f66ff"/></linearGradient><linearGradient id="e"><stop offset="0" stop-color="#fff" stop-opacity=".25"/><stop offset="1" stop-color="#fff" stop-opacity="0"/></linearGradient><linearGradient id="f" gradientUnits="userSpaceOnUse" x1="14" x2="66" xlink:href="#e" y1="10.5" y2="75"/><linearGradient id="g" gradientUnits="userSpaceOnUse" x1="62.3932" x2="9.93538" y1="38.5342" y2="46.4043"><stop offset="0" stop-color="#fff"/><stop offset="1" stop-color="#fff" stop-opacity=".2"/></linearGradient><linearGradient id="h" gradientUnits="userSpaceOnUse" x1="25.3583" x2="27.6808" xlink:href="#e" y1="37.8644" y2="51.1001"/><mask id="i" fill="#000" height="84" maskUnits="userSpaceOnUse" width="84" x="0" y="0"><path d="m0 0h84v84h-84z" fill="#fff"/><path d="m41.915 1c-23.7242 0-40.915 19.355-40.915 40.8333 0 6.86 2.00083 13.9242 5.5125 20.3759.65333 1.0616.735 2.4091.28583 3.675l-2.73583 9.1466c-.6125 2.205 1.26583 3.8384 3.34833 3.185l8.24837-2.45c2.2458-.735 4.0016.2042 6.0882 1.47 5.9617 3.5117 13.3893 5.3084 20.0859 5.3084 20.2534 0 40.8334-15.6392 40.8334-40.8334 0-21.7233-17.5584-40.7108-40.7517-40.7108z" fill="#000"/></mask><mask id="j" fill="#fff"><path clip-rule="evenodd" d="m41.7535 47.1003c-2.8992-.0408-5.2267-2.3683-5.2267-5.2675 0-2.8583 2.3683-5.2266 5.2267-5.1858 2.8991 0 5.2266 2.3275 5.2266 5.2267 0 2.8583-2.3275 5.2266-5.2266 5.2266zm-18.8257.0001c-2.8583 0-5.2266-2.3683-5.2266-5.2266 0-2.8992 2.3275-5.2267 5.2266-5.2267 2.8992 0 5.2267 2.3275 5.2267 5.2267 0 2.8583-2.3275 5.1858-5.2267 5.2266zm32.4226-5.2267c0 2.8583 2.3275 5.2266 5.2266 5.2266 2.8992 0 5.2267-2.3683 5.2267-5.2266 0-2.8992-2.3275-5.2267-5.2267-5.2267-2.8991 0-5.2266 2.3275-5.2266 5.2267z" fill="#fff" fill-rule="evenodd"/></mask><path d="m65.936 26c18.592 0 32.0641 15.168 32.0641 32 0 5.376-1.568 10.912-4.32 15.9681-.512.832-.576 1.888-.224 2.88l2.144 7.168c.48 1.728-.992 3.008-2.624 2.496l-6.4641-1.92c-1.76-.576-3.136.16-4.7712 1.152-4.672 2.752-10.4928 4.16-15.7408 4.16-15.872 0-32-12.256-32-32.0001 0-17.024 13.76-31.904 31.936-31.904z" fill="url(#d)"/><g filter="url(#a)" opacity=".5"><path d="m86.3695 58.319c0 11.4163-9.2524 20.6667-20.6666 20.6667s-20.6667-9.2504-20.6667-20.6667c0-11.4121 9.2525-20.6667 20.6667-20.6667s20.6666 9.2546 20.6666 20.6667z" fill="#8237ff"/></g><g filter="url(#b)"><path d="m41.915 1c-23.7242 0-40.915 19.355-40.915 40.8333 0 6.86 2.00083 13.9242 5.5125 20.3759.65333 1.0616.735 2.4091.28583 3.675l-2.73583 9.1466c-.6125 2.205 1.26583 3.8384 3.34833 3.185l8.24837-2.45c2.2458-.735 4.0016.2042 6.0882 1.47 5.9617 3.5117 13.3893 5.3084 20.0859 5.3084 20.2534 0 40.8334-15.6392 40.8334-40.8334 0-21.7233-17.5584-40.7108-40.7517-40.7108z" fill="#ba90ff" fill-opacity=".35"/><path d="m41.915 2c.5523 0 1-.44772 1-1 0-.552285-.4477-1-1-1zm-35.4025 60.2092-.87832.478c.00848.0156.01737.031.02666.0461zm.28583 3.675-.94242-.3344c-.00562.0158-.01083.0317-.01564.0478zm-2.73583 9.1466-.95806-.2865c-.00188.0063-.0037.0126-.00546.0189zm3.34833 3.185-.28473-.9586c-.00488.0015-.00975.003-.01461.0045zm8.24837-2.45.2847.9586c.0088-.0026.0176-.0053.0263-.0082zm6.0882 1.47-.5187.8551.0112.0066zm20.1676-77.2358c-.5523 0-1 .447715-1 1 0 .55228.4477 1 1 1zm0 0c-24.3093 0-41.915 19.8362-41.915 41.8333h2c0-20.9595 16.776-39.8333 39.915-39.8333zm-41.915 41.8333c0 7.051 2.05494 14.2781 5.63418 20.8539l1.75664-.9561c-3.4441-6.3275-5.39082-13.2287-5.39082-19.8978zm5.66084 20.9c.47058.7647.55955 1.7893.19507 2.8165l1.88485.6688c.53385-1.5045.45949-3.1749-.3766-4.5335zm.17943 2.8643-2.73583 9.1467 1.91612.5731 2.73583-9.1467zm-2.74129 9.1656c-.40096 1.4435.00487 2.7966.94926 3.6673.93318.8602 2.30158 1.1663 3.66193.7395l-.59868-1.9083c-.72214.2265-1.33416.0426-1.70764-.3017-.36228-.334-.58937-.9-.37783-1.6615zm4.59659 4.4112 8.24833-2.45-.5695-1.9172-8.2483 2.45zm8.27463-2.4582c1.7651-.5776 3.1466.0934 5.2585 1.3746l1.0374-1.7099c-2.0613-1.2505-4.1914-2.4578-6.918-1.5655zm5.2697 1.3813c6.1311 3.6114 13.7373 5.4467 20.5934 5.4467v-2c-6.5372 0-13.7861-1.7581-19.5783-5.17zm20.5934 5.4467c20.725 0 41.8334-16.0096 41.8334-41.8334h-2c0 24.5646-20.0517 39.8334-39.8334 39.8334zm41.8334-41.8334c0-22.2533-17.984-41.7108-41.7517-41.7108v2c22.619 0 39.7517 18.5175 39.7517 39.7108z" fill="url(#f)" mask="url(#i)"/></g><g filter="url(#c)"><path clip-rule="evenodd" d="m41.7535 47.1003c-2.8992-.0408-5.2267-2.3683-5.2267-5.2675 0-2.8583 2.3683-5.2266 5.2267-5.1858 2.8991 0 5.2266 2.3275 5.2266 5.2267 0 2.8583-2.3275 5.2266-5.2266 5.2266zm-18.8257.0001c-2.8583 0-5.2266-2.3683-5.2266-5.2266 0-2.8992 2.3275-5.2267 5.2266-5.2267 2.8992 0 5.2267 2.3275 5.2267 5.2267 0 2.8583-2.3275 5.1858-5.2267 5.2266zm32.4226-5.2267c0 2.8583 2.3275 5.2266 5.2266 5.2266 2.8992 0 5.2267-2.3683 5.2267-5.2266 0-2.8992-2.3275-5.2267-5.2267-5.2267-2.8991 0-5.2266 2.3275-5.2266 5.2267z" fill="url(#g)" fill-rule="evenodd"/><path d="m41.7535 47.1003-.0057.4h.0057zm0-10.4533-.0057.4h.0057zm-18.8257 10.4534v.4001l.0057-.0001zm13.199-5.2676c0 3.1212 2.5065 5.6236 5.6211 5.6675l.0112-.7999c-2.6837-.0378-4.8323-2.1904-4.8323-4.8676zm5.6324-5.5858c-3.0848-.044-5.6324 2.5077-5.6324 5.5858h.8c0-2.6385 2.1891-4.8234 4.821-4.7858zm5.6209 5.6267c0-3.1201-2.5065-5.6267-5.6266-5.6267v.8c2.6782 0 4.8266 2.1484 4.8266 4.8267zm-5.6266 5.6266c3.1221 0 5.6266-2.5494 5.6266-5.6266h-.8c0 2.6394-2.1504 4.8266-4.8266 4.8266zm-24.4523-5.6265c0 3.0792 2.5474 5.6266 5.6266 5.6266v-.8c-2.6374 0-4.8266-2.1892-4.8266-4.8266zm5.6266-5.6267c-3.12 0-5.6266 2.5066-5.6266 5.6267h.8c0-2.6783 2.1484-4.8267 4.8266-4.8267zm5.6267 5.6267c0-3.1201-2.5066-5.6267-5.6267-5.6267v.8c2.6783 0 4.8267 2.1484 4.8267 4.8267zm-5.621 5.6266c3.1125-.0439 5.621-2.5443 5.621-5.6266h-.8c0 2.6343-2.1465 4.7888-4.8323 4.8267zm37.6435-.8001c-2.6762 0-4.8266-2.1872-4.8266-4.8266h-.8c0 3.0772 2.5045 5.6266 5.6266 5.6266zm4.8267-4.8266c0 2.6394-2.1504 4.8266-4.8267 4.8266v.8c3.1221 0 5.6267-2.5494 5.6267-5.6266zm-4.8267-4.8267c2.6783 0 4.8267 2.1484 4.8267 4.8267h.8c0-3.1201-2.5066-5.6267-5.6267-5.6267zm-4.8266 4.8267c0-2.6783 2.1484-4.8267 4.8266-4.8267v-.8c-3.12 0-5.6266 2.5066-5.6266 5.6267z" fill="url(#h)" mask="url(#j)"/></g></svg>