<svg fill="none" height="99" viewBox="0 0 97 99" width="97" xmlns="http://www.w3.org/2000/svg" xmlns:xlink="http://www.w3.org/1999/xlink"><filter id="a" color-interpolation-filters="sRGB" filterUnits="userSpaceOnUse" height="85.8329" width="85.6653" x="8.375" y="2.87839"><feFlood flood-opacity="0" result="BackgroundImageFix"/><feBlend in="SourceGraphic" in2="BackgroundImageFix" mode="normal" result="shape"/><feGaussianBlur result="effect1_foregroundBlur_1_488" stdDeviation="8.5"/></filter><filter id="b" color-interpolation-filters="sRGB" filterUnits="userSpaceOnUse" height="124.778" width="124.778" x="-24" y="-1.94727"><feFlood flood-opacity="0" result="BackgroundImageFix"/><feGaussianBlur in="BackgroundImageFix" stdDeviation="12"/><feComposite in2="SourceAlpha" operator="in" result="effect1_backgroundBlur_1_488"/><feBlend in="SourceGraphic" in2="effect1_backgroundBlur_1_488" mode="normal" result="shape"/></filter><filter id="c" color-interpolation-filters="sRGB" filterUnits="userSpaceOnUse" height="54.4738" width="54.4523" x="11.1425" y="33.1618"><feFlood flood-opacity="0" result="BackgroundImageFix"/><feGaussianBlur in="BackgroundImageFix" stdDeviation="7.5"/><feComposite in2="SourceAlpha" operator="in" result="effect1_backgroundBlur_1_488"/><feColorMatrix in="SourceAlpha" result="hardAlpha" type="matrix" values="0 0 0 0 0 0 0 0 0 0 0 0 0 0 0 0 0 0 127 0"/><feOffset dx="5" dy="5"/><feGaussianBlur stdDeviation="5"/><feColorMatrix type="matrix" values="0 0 0 0 1 0 0 0 0 0.321569 0 0 0 0 0.54902 0 0 0 0.5 0"/><feBlend in2="effect1_backgroundBlur_1_488" mode="normal" result="effect2_dropShadow_1_488"/><feBlend in="SourceGraphic" in2="effect2_dropShadow_1_488" mode="normal" result="shape"/></filter><linearGradient id="d" gradientUnits="userSpaceOnUse" x1="55.23" x2="-16.5064" y1="52.0535" y2="65.9068"><stop offset="0" stop-color="#ff759f"/><stop offset="1" stop-color="#ff196e"/></linearGradient><linearGradient id="e"><stop offset="0" stop-color="#fff" stop-opacity=".25"/><stop offset="1" stop-color="#fff" stop-opacity="0"/></linearGradient><linearGradient id="f" gradientUnits="userSpaceOnUse" x1="12.9034" x2="70.6312" xlink:href="#e" y1="31.7644" y2="93.929"/><linearGradient id="g" gradientUnits="userSpaceOnUse" x1="48.8611" x2="21.6235" y1="52.5812" y2="53.4685"><stop offset="0" stop-color="#fff"/><stop offset="1" stop-color="#fff" stop-opacity=".2"/></linearGradient><linearGradient id="h" gradientUnits="userSpaceOnUse" x1="30.0349" x2="45.6495" xlink:href="#e" y1="51.013" y2="70.3351"/><mask id="i" fill="#000" height="77" maskUnits="userSpaceOnUse" width="77" x="0" y="22.0527"><path d="m0 22.0527h77v77h-77z" fill="#fff"/><path d="m54.6157 23.0527h-32.4162c-12.67483 0-21.1995 8.8986-21.1995 22.1343v30.5504c0 13.1983 8.52467 22.0932 21.1995 22.0932h32.4162c12.6749 0 21.1621-8.8949 21.1621-22.0932v-30.5504c0-13.2357-8.4872-22.1343-21.1621-22.1343z" fill="#000"/></mask><path d="m76.5593 13.8768-31.3116-8.38996c-12.243-3.28049-22.7803 3.10851-26.206 15.89316l-7.907 29.5095c-3.41597 12.7486 2.5161 23.5467 14.759 26.8272l31.3117 8.3899c12.2429 3.2805 22.7432-3.1146 26.1591-15.8632l7.9071-29.5094c3.4256-12.7847-2.4693-23.5767-14.7123-26.8572z" fill="url(#d)"/><g filter="url(#a)"><path d="m67.1702 25.6971-19.7148-5.2826c-7.7086-2.0655-14.3433 1.9572-16.5002 10.0069l-4.9785 18.5801c-2.1508 8.027 1.5842 14.8258 9.2928 16.8913l19.7148 5.2826c7.7086 2.0655 14.3199-1.9611 16.4707-9.988l4.9786-18.5802c2.1569-8.0496-1.5548-14.8446-9.2634-16.9101z" fill="#e31352" fill-opacity=".5"/></g><g filter="url(#b)"><path d="m54.6157 23.0527h-32.4162c-12.67483 0-21.1995 8.8986-21.1995 22.1343v30.5504c0 13.1983 8.52467 22.0932 21.1995 22.0932h32.4162c12.6749 0 21.1621-8.8949 21.1621-22.0932v-30.5504c0-13.2357-8.4872-22.1343-21.1621-22.1343z" fill="#ff749f" fill-opacity=".35"/><path d="m54.6157 22.0527c-.5523 0-1 .4477-1 1s.4477 1 1 1zm0 0h-32.4162v2h32.4162zm-32.4162 0c-6.5802 0-12.1511 2.3154-16.07498 6.4121-3.92029 4.0928-6.12452 9.8876-6.12452 16.7222h2c0-6.4011 2.05811-11.6735 5.56886-15.3388 3.50714-3.6616 8.53604-5.7955 14.63064-5.7955zm-22.1995 23.1343v30.5504h2v-30.5504zm0 30.5504c0 6.8167 2.20469 12.6012 6.12502 16.6882 3.92378 4.0906 9.49448 6.405 16.07448 6.405v-2c-6.0948 0-11.1239-2.1331-14.63114-5.7895-3.51071-3.66-5.56836-8.922-5.56836-15.3037zm22.1995 23.0932h32.4162v-2h-32.4162zm32.4162 0c6.5802 0 12.142-2.3145 16.0567-6.4059 3.9109-4.0875 6.1054-9.8718 6.1054-16.6873h-2c0 6.3829-2.049 11.6451-5.5505 15.3046-3.4977 3.6556-8.517 5.7886-14.6116 5.7886zm22.1621-23.0932v-30.5504h-2v30.5504zm0-30.5504c0-6.8334-2.1941-12.628-6.1049-16.7213-3.9147-4.0974-9.4768-6.413-16.0572-6.413v2c6.0945 0 11.1135 2.1338 14.6111 5.7946 3.5015 3.6649 5.551 8.9374 5.551 15.3397z" fill="url(#f)" mask="url(#i)"/></g><g filter="url(#c)"><path d="m49.6414 67.0647c1.2712 1.2712 1.2712 3.3276 0 4.5951-.6356.6356-1.4582.9758-2.3181.9758-.8226 0-1.6451-.2991-2.2808-.9758l-6.6552-6.6141-6.6552 6.6141c-.6356.6356-1.4582.9758-2.3181.9758-.8226 0-1.6825-.3402-2.3181-.9758-1.2712-1.2675-1.2712-3.3239 0-4.6325l6.6552-6.6179-6.6552-6.6589c-1.2712-1.2675-1.2712-3.3613 0-4.6325 1.2712-1.275 3.3276-1.275 4.6362 0l6.6552 6.6515 6.6179-6.6515c1.3086-1.275 3.365-1.275 4.6362 0 1.2712 1.2712 1.2712 3.365 0 4.6325l-6.6552 6.6589z" fill="url(#g)"/><path d="m49.5002 71.5181-.0002.0002c-.599.599-1.371.9173-2.1767.9173-.7729 0-1.5408-.2801-2.135-.9128h.0001l-.0049-.0049-6.6552-6.6141-.141-.1401-.141.1401-6.6552 6.6141-.0004.0004c-.599.599-1.371.9173-2.1767.9173-.7696 0-1.5786-.3192-2.1767-.9173l-.0002-.0002c-1.1912-1.1877-1.1948-3.1179.001-4.3502l6.654-6.6166.1422-.1414-.1417-.1418-6.6553-6.659-.0002-.0003c-1.1927-1.1892-1.193-3.1562.0002-4.3494l.0002-.0002c1.1917-1.1952 3.122-1.1984 4.3541.0011l6.6543 6.6506.1418.1417.1414-.1421 6.6156-6.6493c.0004-.0003.0007-.0007.0011-.001 1.2321-1.1994 3.1623-1.1961 4.354-.001l.0002.0002c1.1932 1.1932 1.1929 3.1602.0002 4.3494l-.0003.0003-6.6552 6.659-.1413.1414.1413.1414 6.6553 6.6552c1.1932 1.1932 1.1929 3.1228.0002 4.312z" stroke="url(#h)" stroke-width=".4"/></g></svg>