<svg fill="none" height="106" viewBox="0 0 116 106" width="116" xmlns="http://www.w3.org/2000/svg" xmlns:xlink="http://www.w3.org/1999/xlink"><filter id="a" color-interpolation-filters="sRGB" filterUnits="userSpaceOnUse" height="87.9747" width="85.4763" x="3.60797" y="3.79791"><feFlood flood-opacity="0" result="BackgroundImageFix"/><feBlend in="SourceGraphic" in2="BackgroundImageFix" mode="normal" result="shape"/><feGaussianBlur result="effect1_foregroundBlur_1_476" stdDeviation="9.5"/></filter><filter id="b" color-interpolation-filters="sRGB" filterUnits="userSpaceOnUse" height="133.433" width="120.918" x="10.0811" y="-3.58789"><feFlood flood-opacity="0" result="BackgroundImageFix"/><feGaussianBlur in="BackgroundImageFix" stdDeviation="12"/><feComposite in2="SourceAlpha" operator="in" result="effect1_backgroundBlur_1_476"/><feBlend in="SourceGraphic" in2="effect1_backgroundBlur_1_476" mode="normal" result="shape"/></filter><filter id="c" color-interpolation-filters="sRGB" filterUnits="userSpaceOnUse" height="54.7538" width="54.5468" x="41.5664" y="40.1562"><feFlood flood-opacity="0" result="BackgroundImageFix"/><feGaussianBlur in="BackgroundImageFix" stdDeviation="7.5"/><feComposite in2="SourceAlpha" operator="in" result="effect1_backgroundBlur_1_476"/><feColorMatrix in="SourceAlpha" result="hardAlpha" type="matrix" values="0 0 0 0 0 0 0 0 0 0 0 0 0 0 0 0 0 0 127 0"/><feOffset dx="5" dy="5"/><feGaussianBlur stdDeviation="5"/><feColorMatrix type="matrix" values="0 0 0 0 1 0 0 0 0 0.580392 0 0 0 0 0.247059 0 0 0 0.5 0"/><feBlend in2="effect1_backgroundBlur_1_476" mode="normal" result="effect2_dropShadow_1_476"/><feBlend in="SourceGraphic" in2="effect2_dropShadow_1_476" mode="normal" result="shape"/></filter><filter id="d" color-interpolation-filters="sRGB" filterUnits="userSpaceOnUse" height="51.4533" width="50.5803" x="64.873" y="11.5801"><feFlood flood-opacity="0" result="BackgroundImageFix"/><feGaussianBlur in="BackgroundImageFix" stdDeviation="7.5"/><feComposite in2="SourceAlpha" operator="in" result="effect1_backgroundBlur_1_476"/><feColorMatrix in="SourceAlpha" result="hardAlpha" type="matrix" values="0 0 0 0 0 0 0 0 0 0 0 0 0 0 0 0 0 0 127 0"/><feOffset dx="5" dy="5"/><feGaussianBlur stdDeviation="5"/><feColorMatrix type="matrix" values="0 0 0 0 1 0 0 0 0 0.580392 0 0 0 0 0.247059 0 0 0 0.5 0"/><feBlend in2="effect1_backgroundBlur_1_476" mode="normal" result="effect2_dropShadow_1_476"/><feBlend in="SourceGraphic" in2="effect2_dropShadow_1_476" mode="normal" result="shape"/></filter><linearGradient id="e" gradientUnits="userSpaceOnUse" x1="36.2277" x2="62.628" y1="9.91988" y2="86.3092"><stop offset="0" stop-color="#ffb37f"/><stop offset="1" stop-color="#ff7b0d"/></linearGradient><linearGradient id="f"><stop offset="0" stop-color="#fff" stop-opacity=".25"/><stop offset="1" stop-color="#fff" stop-opacity="0"/></linearGradient><linearGradient id="g" gradientUnits="userSpaceOnUse" x1="46.3701" x2="100.742" xlink:href="#f" y1="31.1322" y2="88.3723"/><linearGradient id="h"><stop offset="0" stop-color="#fff"/><stop offset="1" stop-color="#fff" stop-opacity=".2"/></linearGradient><linearGradient id="i" gradientUnits="userSpaceOnUse" x1="79.3729" x2="52.0296" xlink:href="#h" y1="59.6263" y2="60.5103"/><linearGradient id="j" gradientUnits="userSpaceOnUse" x1="60.4739" x2="76.2916" xlink:href="#f" y1="58.0401" y2="77.4669"/><linearGradient id="k" gradientUnits="userSpaceOnUse" x1="98.9942" x2="76.0678" xlink:href="#h" y1="30.4541" y2="31.1712"/><linearGradient id="l" gradientUnits="userSpaceOnUse" x1="83.1491" x2="96.9429" xlink:href="#f" y1="29.0794" y2="45.4682"/><mask id="m" fill="#fff"><path clip-rule="evenodd" d="m78.2545 70.4012h-6.5941v6.66c0 1.5784-1.2578 2.8488-2.8206 2.8488-1.5627 0-2.8587-1.2704-2.8587-2.8488v-6.66h-6.556c-1.5627 0-2.8587-1.2704-2.8587-2.8488 0-1.6169 1.296-2.8873 2.8587-2.8873h6.556v-6.66c0-1.5784 1.296-2.8489 2.8587-2.8489 1.5628 0 2.8206 1.2705 2.8206 2.8489v6.66h6.5941c1.5628 0 2.8587 1.2704 2.8587 2.8873 0 1.5784-1.2959 2.8488-2.8587 2.8488z" fill="#fff" fill-rule="evenodd"/></mask><path clip-rule="evenodd" d="m45.1359 6.84122-28.0802 9.70458c-.0303.0104-.0605.021-.0907.0316-9.36897 3.2468-14.31002 13.545-11.03811 23.0123l10.54671 30.5171c.0166.048.0333.0959.0503.1436l3.6595 10.5889c3.432 9.9305 14.2342 15.2189 24.0665 11.8208l10.0869-3.486c.0316-.0108.0633-.0216.095-.0326l19.8437-6.858c.0306-.0105.0611-.0212.0916-.0319 9.3684-3.2472 14.309-13.5451 11.0372-23.0121l-13.1143-37.9464-.0008-.0004-1.1414-3.3027c-3.432-9.93056-14.2343-15.21888-24.0665-11.82086l-1.9451.67224z" fill="url(#e)" fill-rule="evenodd"/><g filter="url(#a)" opacity=".5"><path d="m63.1695 68.9835-7.7895 2.692c-5.3706 1.8561-11.2773 1.3401-16.2447-1.4192l-1.353-.7516c-4.3083-2.3932-7.5813-6.2928-9.1912-10.9508l-5.3574-15.5019c-1.9614-5.6753.8419-11.7933 6.262-13.6665l17.3971-6.0124c5.6824-1.9639 11.9845 1.2634 14.0409 7.2134l8.5258 24.6695c1.9614 5.6754-.8479 11.8467-6.29 13.7275z" fill="#e46800"/></g><g filter="url(#b)"><path d="m53.709 21.4121h30.6698l21.6202 23.2568v41.4459c0 10.3457-8.3015 18.7312-18.5449 18.7312h-32.8777c-10.739 0-19.4953-8.8027-19.4953-19.649v-44.9706c0-10.3458 8.3433-18.8143 18.6279-18.8143z" fill="#ffcbb9" fill-opacity=".35"/><path d="m84.745 21.0717c-.0946-.1018-.2273-.1596-.3662-.1596h-30.6698c-10.5661 0-19.1279 8.6978-19.1279 19.3143v44.9706c0 11.1192 8.9769 20.149 19.9953 20.149h32.8777c10.5242 0 19.0449-8.6141 19.0449-19.2312v-41.4459c0-.1264-.047-.248-.133-.3405z" stroke="url(#g)" stroke-linecap="round" stroke-linejoin="round"/></g><g filter="url(#c)"><path clip-rule="evenodd" d="m78.2545 70.4012h-6.5941v6.66c0 1.5784-1.2578 2.8488-2.8206 2.8488-1.5627 0-2.8587-1.2704-2.8587-2.8488v-6.66h-6.556c-1.5627 0-2.8587-1.2704-2.8587-2.8488 0-1.6169 1.296-2.8873 2.8587-2.8873h6.556v-6.66c0-1.5784 1.296-2.8489 2.8587-2.8489 1.5628 0 2.8206 1.2705 2.8206 2.8489v6.66h6.5941c1.5628 0 2.8587 1.2704 2.8587 2.8873 0 1.5784-1.2959 2.8488-2.8587 2.8488z" fill="url(#i)" fill-rule="evenodd"/><path d="m71.6604 70.4012v-.4h-.4v.4zm-5.6793 0h.4v-.4h-.4zm0-5.7361v.4h.4v-.4zm5.6793 0h-.4v.4h.4zm6.5941 5.3361h-6.5941v.8h6.5941zm-6.9941.4v6.66h.8v-6.66zm0 6.66c0 1.3613-1.0825 2.4488-2.4206 2.4488v.8c1.7874 0 3.2206-1.4532 3.2206-3.2488zm-2.4206 2.4488c-1.3451 0-2.4587-1.0945-2.4587-2.4488h-.8c0 1.8026 1.4783 3.2488 3.2587 3.2488zm-2.4587-2.4488v-6.66h-.8v6.66zm-.4-7.06h-6.556v.8h6.556zm-6.556 0c-1.3451 0-2.4587-1.0946-2.4587-2.4488h-.8c0 1.8025 1.4783 3.2488 3.2587 3.2488zm-2.4587-2.4488c0-1.3963 1.1171-2.4873 2.4587-2.4873v-.8c-1.7839 0-3.2587 1.4498-3.2587 3.2873zm2.4587-2.4873h6.556v-.8h-6.556zm6.956-.4v-6.66h-.8v6.66zm0-6.66c0-1.3543 1.1136-2.4488 2.4587-2.4488v-.8001c-1.7804 0-3.2587 1.4463-3.2587 3.2489zm2.4587-2.4488c1.3381 0 2.4206 1.0875 2.4206 2.4488h.8c0-1.7956-1.4332-3.2489-3.2206-3.2489zm2.4206 2.4488v6.66h.8v-6.66zm.4 7.06h6.5941v-.8h-6.5941zm6.5941 0c1.3416 0 2.4587 1.091 2.4587 2.4873h.8c0-1.8375-1.4747-3.2873-3.2587-3.2873zm2.4587 2.4873c0 1.3542-1.1136 2.4488-2.4587 2.4488v.8c1.7805 0 3.2587-1.4463 3.2587-3.2488z" fill="url(#j)" mask="url(#m)"/></g><g filter="url(#d)"><path d="m88.204 47.9993c2.8789.0292 6.8812.0417 10.2764.0292 1.7386-.0042 2.6226-2.1025 1.4167-3.3665-4.3617-4.5805-12.164-12.7779-16.6289-17.4668-1.235-1.2974-3.3952-.4047-3.3952 1.3933v10.9965c0 4.6139 3.7628 8.4143 8.331 8.4143z" fill="url(#k)"/><path d="m88.206 47.7993h-.002c-4.4559 0-8.131-3.709-8.131-8.2143v-10.9965c0-1.6246 1.9448-2.4168 3.0503-1.2554h.0001c2.2347 2.3469 5.3073 5.5745 8.3657 8.7873 3.05 3.204 6.086 6.3932 8.2631 8.6795l.0002.0001c1.0866 1.1393.2876 3.0248-1.2725 3.0285h-.0003c-3.3943.0125-7.3957 0-10.2736-.0292z" stroke="url(#l)" stroke-width=".4"/></g></svg>