<svg fill="none" height="103" viewBox="0 0 84 103" width="84" xmlns="http://www.w3.org/2000/svg" xmlns:xlink="http://www.w3.org/1999/xlink"><filter id="a" color-interpolation-filters="sRGB" filterUnits="userSpaceOnUse" height="67.6779" width="69.7229" x="7.25037" y=".940582"><feFlood flood-opacity="0" result="BackgroundImageFix"/><feBlend in="SourceGraphic" in2="BackgroundImageFix" mode="normal" result="shape"/><feGaussianBlur result="effect1_foregroundBlur_1_181" stdDeviation="10"/></filter><filter id="b" color-interpolation-filters="sRGB" filterUnits="userSpaceOnUse" height="123.5" width="131.667" x="-24" y="3"><feFlood flood-opacity="0" result="BackgroundImageFix"/><feGaussianBlur in="BackgroundImageFix" stdDeviation="12"/><feComposite in2="SourceAlpha" operator="in" result="effect1_backgroundBlur_1_181"/><feBlend in="SourceGraphic" in2="effect1_backgroundBlur_1_181" mode="normal" result="shape"/></filter><filter id="c" color-interpolation-filters="sRGB" filterUnits="userSpaceOnUse" height="58.6895" width="59.8524" x="11.9061" y="34.2357"><feFlood flood-opacity="0" result="BackgroundImageFix"/><feGaussianBlur in="BackgroundImageFix" stdDeviation="7.5"/><feComposite in2="SourceAlpha" operator="in" result="effect1_backgroundBlur_1_181"/><feColorMatrix in="SourceAlpha" result="hardAlpha" type="matrix" values="0 0 0 0 0 0 0 0 0 0 0 0 0 0 0 0 0 0 127 0"/><feOffset dx="5" dy="5"/><feGaussianBlur stdDeviation="5"/><feColorMatrix type="matrix" values="0 0 0 0 0.15375 0 0 0 0 0.522433 0 0 0 0 0.9 0 0 0 0.5 0"/><feBlend in2="effect1_backgroundBlur_1_181" mode="normal" result="effect2_dropShadow_1_181"/><feBlend in="SourceGraphic" in2="effect2_dropShadow_1_181" mode="normal" result="shape"/></filter><linearGradient id="d" gradientUnits="userSpaceOnUse" x1="32.8094" x2="28.2202" y1="3.63644" y2="63.4121"><stop offset="0" stop-color="#39affd"/><stop offset="1" stop-color="#477fff"/></linearGradient><linearGradient id="e" gradientUnits="userSpaceOnUse" x1="14" x2="73.6371" y1="36.5628" y2="104.064"><stop offset="0" stop-color="#fff" stop-opacity=".25"/><stop offset="1" stop-color="#fff" stop-opacity="0"/></linearGradient><linearGradient id="f" gradientUnits="userSpaceOnUse" x1="54.6421" x2="21.3922" y1="54.4164" y2="55.5445"><stop offset="0" stop-color="#fff"/><stop offset="1" stop-color="#fff" stop-opacity=".2"/></linearGradient><linearGradient id="g" gradientUnits="userSpaceOnUse" x1="30.1219" x2="55.4707" y1="58.8596" y2="59.0052"><stop offset="0" stop-color="#fff"/><stop offset="1" stop-color="#fff" stop-opacity="0"/></linearGradient><mask id="h" fill="#000" height="76" maskUnits="userSpaceOnUse" width="84" x="0" y="27"><path d="m0 27h84v76h-84z" fill="#fff"/><path d="m79.6042 70.7786c-3.3524 0-6.0801-2.7028-6.0801-6.0246 0-3.3258 2.7277-6.0285 6.0801-6.0285.8126 0 1.5925-.3197 2.1641-.8861.5758-.5705.8984-1.3433.8984-2.1484l-.0041-10.9324c0-9.2411-7.5909-16.7586-16.9173-16.7586h-47.824c-9.3263 0-16.91722 7.5175-16.91722 16.7586l-.00408 11.2844c0 .8051.32258 1.5779.89833 2.1484.57167.5664 1.35159.8861 2.16417.8861 3.46675 0 6.0801 2.4397 6.0801 5.6765 0 3.3218-2.72768 6.0246-6.0801 6.0246-1.6905 0-3.0625 1.3594-3.0625 3.0345v10.9242c0 9.2412 7.58683 16.7627 16.9173 16.7627h47.8321c9.3304 0 16.9173-7.5215 16.9173-16.7627v-10.9242c0-1.6751-1.372-3.0345-3.0625-3.0345z" fill="#000"/></mask><path d="m24.9332 44.2772c-3.66-3.1702-5.4899-4.7553-6.5671-6.5753-1.8351-3.1004-2.3013-6.8233-1.2873-10.2804.5952-2.0294 1.9778-4.0168 4.743-7.9915 2.7653-3.9748 4.1479-5.9622 5.8437-7.2259 2.8889-2.1528 6.5416-3.0102 10.0866-2.36761 2.081.37721 4.2035 1.54181 8.4485 3.87111l12.0709 6.6235c6.4665 3.5483 9.6998 5.3224 11.446 7.8462 1.8697 2.7023 2.6467 6.0125 2.1746 9.2645-.4409 3.0372-2.5471 6.0646-6.7595 12.1195-4.2124 6.055-6.3186 9.0824-9.013 10.5519-2.885 1.5734-6.2587 1.9959-9.4426 1.1824-2.9735-.7597-5.7612-3.1744-11.3365-8.0037z" fill="url(#d)"/><g filter="url(#a)" opacity=".5"><path d="m31.0722 40.3758c-4.2778-3.7054-5.0712-10.0411-1.8391-14.6869s9.4483-6.1049 14.41-3.3824l7.135 3.915c6.2161 3.4109 8.1048 11.4573 4.0555 17.2777s-12.2503 6.8474-17.6098 2.2051z" fill="#0062ff"/></g><g filter="url(#b)"><path d="m79.6042 70.7786c-3.3524 0-6.0801-2.7028-6.0801-6.0246 0-3.3258 2.7277-6.0285 6.0801-6.0285.8126 0 1.5925-.3197 2.1641-.8861.5758-.5705.8984-1.3433.8984-2.1484l-.0041-10.9324c0-9.2411-7.5909-16.7586-16.9173-16.7586h-47.824c-9.3263 0-16.91722 7.5175-16.91722 16.7586l-.00408 11.2844c0 .8051.32258 1.5779.89833 2.1484.57167.5664 1.35159.8861 2.16417.8861 3.46675 0 6.0801 2.4397 6.0801 5.6765 0 3.3218-2.72768 6.0246-6.0801 6.0246-1.6905 0-3.0625 1.3594-3.0625 3.0345v10.9242c0 9.2412 7.58683 16.7627 16.9173 16.7627h47.8321c9.3304 0 16.9173-7.5215 16.9173-16.7627v-10.9242c0-1.6751-1.372-3.0345-3.0625-3.0345z" fill="#3ea0fe" fill-opacity=".35"/><path d="m79.6042 71.7786c.5523 0 1-.4477 1-1s-.4477-1-1-1zm2.1641-13.9392-.7038-.7103zm.8984-2.1484h1v-.0004zm-.0041-10.9324h-1v.0004zm-81.65852 0 1 .0004v-.0004zm-.00408 11.2844-1-.0004v.0004zm.89833 2.1484.70386-.7103zm77.70587 11.5872c-.5523 0-1 .4477-1 1s.4477 1 1 1zm0 0c-2.8088 0-5.0801-2.2637-5.0801-5.0246h-2c0 3.8827 3.184 7.0246 7.0801 7.0246zm-5.0801-5.0246c0-2.7653 2.2717-5.0285 5.0801-5.0285v-2c-3.8965 0-7.0801 3.1422-7.0801 7.0285zm5.0801-5.0285c1.0737 0 2.1073-.422 2.868-1.1758l-1.4077-1.4206c-.3827.3791-.9089.5964-1.4603.5964zm2.868-1.1758c.7644-.7573 1.1945-1.7855 1.1945-2.8587h-2c0 .537-.2151 1.0545-.6022 1.4381zm1.1945-2.8591-.0041-10.9324-2 .0008.0041 10.9323zm-.0041-10.932c0-9.8023-8.0476-17.7586-17.9173-17.7586v2c8.7831 0 15.9173 7.0787 15.9173 15.7586zm-17.9173-17.7586h-47.824v2h47.824zm-47.824 0c-9.86959 0-17.91721666 7.9563-17.91721666 17.7586h1.99999666c0-8.6799 7.13422-15.7586 15.91722-15.7586zm-17.9172166 17.7583-.00408334 11.2843 1.99999994.0007.00408-11.2843zm-.0040834 11.2847c0 1.0732.430116 2.1014 1.19448 2.8587l1.40771-1.4206c-.38714-.3836-.60219-.9011-.60219-1.4381zm1.19448 2.8587c.76067.7538 1.79427 1.1758 2.86802 1.1758v-2c-.55142 0-1.07765-.2173-1.46031-.5964zm2.86802 1.1758c2.98027 0 5.08008 2.0556 5.08008 4.6765h2.00002c0-3.8526-3.12687-6.6765-7.0801-6.6765zm5.08008 4.6765c0 2.7609-2.27127 5.0246-5.08008 5.0246v2c3.89603 0 7.0801-3.1419 7.0801-7.0246zm-5.08008 5.0246c-2.23411 0-4.0625 1.7985-4.0625 4.0345h2c0-1.1141.91561-2.0345 2.0625-2.0345zm-4.0625 4.0345v10.9242h2v-10.9242zm0 10.9242c0 9.8019 8.04307 17.7627 17.9173 17.7627v-2c-8.7867 0-15.9173-7.0823-15.9173-15.7627zm17.9173 17.7627h47.8321v-2h-47.8321zm47.8321 0c9.8742 0 17.9173-7.9608 17.9173-17.7627h-2c0 8.6804-7.1306 15.7627-15.9173 15.7627zm17.9173-17.7627v-10.9242h-2v10.9242zm0-10.9242c0-2.236-1.8284-4.0345-4.0625-4.0345v2c1.1469 0 2.0625.9204 2.0625 2.0345z" fill="url(#e)" mask="url(#h)"/></g><g filter="url(#c)"><path d="m55.841 63.07-4.8142 4.6877 1.1392 6.6272c.196 1.1475-.2654 2.2785-1.2086 2.9564-.9351.686-2.156.7717-3.185.2246l-5.9413-3.1238-5.9535 3.1278c-.441.2328-.9228.3553-1.4006.3553-.6247 0-1.2413-.196-1.7721-.5798-.9392-.682-1.4006-1.813-1.2046-2.9605l1.1351-6.6272-4.8142-4.6877c-.833-.8085-1.1229-1.9967-.7636-3.1033.3634-1.1025 1.3026-1.8865 2.45-2.0498l6.6395-.9678 2.9768-6.0311c.5185-1.0371 1.5557-1.6823 2.7072-1.6823h.0082c1.1556.0041 2.1927.6492 2.7031 1.6864l2.9768 6.027 6.6517.9718c1.1352.1593 2.0744.9433 2.4337 2.0458.3634 1.1066.0735 2.2948-.7636 3.1033z" fill="url(#f)"/><path d="m55.7713 62.9984.0003-.0003c.8092-.7817 1.0896-1.9298.738-3.0002l-.0001-.0002c-.3475-1.0663-1.2552-1.8238-2.3524-1.9777l-.0006-.0001-6.6518-.9718-.0519-.0076-.0233-.0471-2.9767-6.027-.0001-.0001c-.4935-1.0029-1.4959-1.6266-2.6136-1.6306h-.008c-1.1131 0-2.1158.6233-2.6177 1.6268 0 .0001 0 .0002-.0001.0002l-2.9765 6.0307-.0233.0471-.052.0076-6.6395.9677-.0003.0001c-1.1098.1579-2.0175.9157-2.369 1.9819-.3476 1.0706-.0672 2.2188.7381 3.0005l.0002.0001 4.8142 4.6876.0377.0367-.0089.0519-1.1351 6.6272c-.1896 1.1098.2563 2.203 1.1646 2.8625.5139.3716 1.11.5609 1.7135.5609.4607 0 .9266-.1182 1.3539-.3437l.0002-.0001 5.9535-3.1278.0465-.0245.0466.0245 5.9412 3.1237.0004.0003c.9954.5292 2.175.4462 3.0789-.217l.0008-.0005c.912-.6554 1.358-1.7483 1.1685-2.8582zm0 0-4.8143 4.6876-.0377.0368.0089.0518 1.1393 6.6272z" stroke="url(#g)" stroke-opacity=".5" stroke-width=".2"/></g></svg>