<svg fill="none" height="102" viewBox="0 0 108 102" width="108" xmlns="http://www.w3.org/2000/svg" xmlns:xlink="http://www.w3.org/1999/xlink"><filter id="a" color-interpolation-filters="sRGB" filterUnits="userSpaceOnUse" height="87.902" width="89.4376" x=".85022" y=".602539"><feFlood flood-opacity="0" result="BackgroundImageFix"/><feBlend in="SourceGraphic" in2="BackgroundImageFix" mode="normal" result="shape"/><feGaussianBlur result="effect1_foregroundBlur_1_151" stdDeviation="9.5"/></filter><filter id="b" color-interpolation-filters="sRGB" filterUnits="userSpaceOnUse" height="122.844" width="122.844" x="1.4411" y="-3.84375"><feFlood flood-opacity="0" result="BackgroundImageFix"/><feGaussianBlur in="BackgroundImageFix" stdDeviation="12"/><feComposite in2="SourceAlpha" operator="in" result="effect1_backgroundBlur_1_151"/><feBlend in="SourceGraphic" in2="effect1_backgroundBlur_1_151" mode="normal" result="shape"/></filter><filter id="c" color-interpolation-filters="sRGB" filterUnits="userSpaceOnUse" height="81.1989" width="84.8561" x="22.4128" y="20.7832"><feFlood flood-opacity="0" result="BackgroundImageFix"/><feGaussianBlur in="BackgroundImageFix" stdDeviation="7.5"/><feComposite in2="SourceAlpha" operator="in" result="effect1_backgroundBlur_1_151"/><feColorMatrix in="SourceAlpha" result="hardAlpha" type="matrix" values="0 0 0 0 0 0 0 0 0 0 0 0 0 0 0 0 0 0 127 0"/><feOffset dx="5" dy="5"/><feGaussianBlur stdDeviation="5"/><feColorMatrix type="matrix" values="0 0 0 0 0.15375 0 0 0 0 0.522433 0 0 0 0 0.9 0 0 0 0.5 0"/><feBlend in2="effect1_backgroundBlur_1_151" mode="normal" result="effect2_dropShadow_1_151"/><feBlend in="SourceGraphic" in2="effect2_dropShadow_1_151" mode="normal" result="shape"/></filter><linearGradient id="d" gradientUnits="userSpaceOnUse" x1="7.73197" x2="91.4726" y1="17.459" y2="45.6258"><stop offset="0" stop-color="#39affd"/><stop offset="1" stop-color="#3a76ff"/></linearGradient><linearGradient id="e" gradientUnits="userSpaceOnUse" x1="38.0367" x2="84.5035" y1="29.6427" y2="87.1929"><stop offset="0" stop-color="#fff" stop-opacity=".25"/><stop offset="1" stop-color="#fff" stop-opacity=".06"/></linearGradient><linearGradient id="f" gradientUnits="userSpaceOnUse" x1="88.3796" x2="27.2847" y1="45.0287" y2="47.163"><stop offset="0" stop-color="#fff"/><stop offset="1" stop-color="#fff" stop-opacity=".2"/></linearGradient><linearGradient id="g" gradientUnits="userSpaceOnUse" x1="43.322" x2="89.9022" y1="52.958" y2="53.2335"><stop offset="0" stop-color="#fff"/><stop offset="1" stop-color="#fff" stop-opacity="0"/></linearGradient><mask id="h" fill="#000" height="75" maskUnits="userSpaceOnUse" width="75" x="25.4411" y="20.1562"><path d="m25.4411 20.1562h75v75h-75z" fill="#fff"/><path d="m78.6703 21.1562h-31.5779c-12.3471 0-20.6513 8.6685-20.6513 21.5619v29.7568c0 12.857 8.3042 21.5255 20.6513 21.5255h31.5779c12.3471 0 20.6149-8.6685 20.6149-21.5255v-29.7568c0-12.8934-8.2678-21.5619-20.6149-21.5619z" fill="#000"/></mask><mask id="i" fill="#fff"><path clip-rule="evenodd" d="m41.0706 44.9259c0 5.0404 4.0967 9.1427 9.1385 9.1427 5.0382 0 9.1385-4.1023 9.1385-9.1427s-4.1003-9.1427-9.1385-9.1427c-5.0418 0-9.1385 4.1023-9.1385 9.1427zm49.8222 33.5532c1.3092-3.1098 1.9454-6.8839.7208-10.0239-.4082-1.0416-1.0187-2.0116-1.8755-2.8645-2.247-2.2305-4.3468-4.3138-6.8438-5.8536-3.9202-2.4456-6.9467.9888-7.7631 2.0871-.6513.8776-1.227 1.8302-1.8105 2.7957-.1216.2012-.2436.403-.3666.6047l-.029.0481c-1.7363 2.876-3.7302 6.1785-7.1678 8.1039-5.0234 2.7815-8.8369.2189-11.5803-1.6455-1.0297-.6944-2.03-1.3511-3.0266-1.7889-2.4565-1.0605-4.6667.1472-7.947 4.3138-1.7211 2.1776-3.4274 4.3364-5.1558 6.4876-1.0334 1.2869-.787 3.2721.6068 4.1326 2.2248 1.37 4.9388 2.1059 8.0058 2.1059h30.8209c1.7394 0 3.4825-.2377 5.1447-.7812 3.7437-1.2228 6.7151-4.0232 8.267-7.7218z" fill="#fff" fill-rule="evenodd"/></mask><path d="m20.6127 14.0076 30.903-8.28041c11.2616-3.01752 19.4193 1.9051 22.5558 13.61091l8.599 32.0917c3.1365 11.7059-1.4669 20.0478-12.7284 23.0653l-30.9031 8.2805c-11.2616 3.0175-19.3898-1.913-22.5264-13.6188l-8.59895-32.0917c-3.13657-11.7059 1.43747-20.0399 12.69905-23.0575z" fill="url(#d)"/><g filter="url(#a)"><path d="m29.3027 25.8578 20.9885-5.6238c7.6484-2.0494 13.0936.9381 15.0556 8.2603l5.3788 20.0741c1.962 7.3223-1.2599 12.6321-8.9084 14.6815l-20.9884 5.6238c-7.6485 2.0494-13.0736-.9434-15.0356-8.2657l-5.3789-20.0741c-1.962-7.3222 1.2399-12.6267 8.8884-14.6761z" fill="#0062ff" fill-opacity=".5"/></g><g filter="url(#b)"><path d="m78.6703 21.1562h-31.5779c-12.3471 0-20.6513 8.6685-20.6513 21.5619v29.7568c0 12.857 8.3042 21.5255 20.6513 21.5255h31.5779c12.3471 0 20.6149-8.6685 20.6149-21.5255v-29.7568c0-12.8934-8.2678-21.5619-20.6149-21.5619z" fill="#3ea0fe" fill-opacity=".35"/><path d="m78.6703 22.1562c.5523 0 1-.4477 1-1 0-.5522-.4477-1-1-1zm0-2c-.5522 0-1 .4478-1 1 0 .5523.4478 1 1 1zm0 0h-31.5779v2h31.5779zm-31.5779 0c-6.4163 0-11.8502 2.2579-15.678 6.2542-3.8242 3.9926-5.9733 9.6442-5.9733 16.3077h2c0-6.2299 2.003-11.3592 5.4177-14.9242 3.4111-3.5613 8.3029-5.6377 14.2336-5.6377zm-21.6513 22.5619v29.7568h2v-29.7568zm0 29.7568c0 6.646 2.1496 12.2886 5.9737 16.2763 3.8277 3.9914 9.2613 6.2492 15.6776 6.2492v-2c-5.9308 0-10.8228-2.0764-14.234-5.6335-3.4148-3.5608-5.4173-8.6809-5.4173-14.892zm21.6513 22.5255h31.5779v-2h-31.5779zm31.5779 0c6.4165 0 11.8415-2.258 15.6603-6.2501 3.8149-3.9882 5.9544-9.6306 5.9544-16.2754h-1.9998c0 6.2123-1.9942 11.3326-5.3999 14.8929-3.4019 3.5563-8.2843 5.6326-14.215 5.6326zm21.6147-22.5255v-29.7568h-1.9998v29.7568zm0-29.7568c0-6.6622-2.139-12.3137-5.954-16.3068-3.8189-3.997-9.2441-6.2551-15.6607-6.2551v2c5.9306 0 10.8128 2.0762 14.2146 5.6368 3.4057 3.5645 5.4003 8.694 5.4003 14.9251z" fill="url(#e)" mask="url(#h)"/></g><g filter="url(#c)"><path clip-rule="evenodd" d="m41.0706 44.9259c0 5.0404 4.0967 9.1427 9.1385 9.1427 5.0382 0 9.1385-4.1023 9.1385-9.1427s-4.1003-9.1427-9.1385-9.1427c-5.0418 0-9.1385 4.1023-9.1385 9.1427zm49.8222 33.5532c1.3092-3.1098 1.9454-6.8839.7208-10.0239-.4082-1.0416-1.0187-2.0116-1.8755-2.8645-2.247-2.2305-4.3468-4.3138-6.8438-5.8536-3.9202-2.4456-6.9467.9888-7.7631 2.0871-.6513.8776-1.227 1.8302-1.8105 2.7957-.1216.2012-.2436.403-.3666.6047l-.029.0481c-1.7363 2.876-3.7302 6.1785-7.1678 8.1039-5.0234 2.7815-8.8369.2189-11.5803-1.6455-1.0297-.6944-2.03-1.3511-3.0266-1.7889-2.4565-1.0605-4.6667.1472-7.947 4.3138-1.7211 2.1776-3.4274 4.3364-5.1558 6.4876-1.0334 1.2869-.787 3.2721.6068 4.1326 2.2248 1.37 4.9388 2.1059 8.0058 2.1059h30.8209c1.7394 0 3.4825-.2377 5.1447-.7812 3.7437-1.2228 6.7151-4.0232 8.267-7.7218z" fill="url(#f)" fill-rule="evenodd"/><path d="m91.6136 68.4552.1863-.0727-.0001-.0003zm-.7208 10.0239-.1843-.0776-.0001.0003zm-1.1547-12.8884.1411-.1417-.0002-.0002zm-6.8438-5.8536-.1059.1697.0009.0006zm-7.7631 2.0871-.1605-.1193-.0001.0001zm-1.8105 2.7957-.1712-.1034zm-.3666.6047-.1707-.1041-.0005.0007zm-.029.0481.1712.1034zm-7.1678 8.1039.0969.175.0008-.0005zm-11.5803-1.6455.1124-.1654-.0006-.0004zm-3.0266-1.7889.0804-.1831-.0011-.0005zm-7.947 4.3138.1569.124.0002-.0003zm-5.1558 6.4876-.1559-.1253-.0001.0001zm.6068 4.1326-.1051.1702.0002.0001zm43.9714 1.3247-.0621-.1901zm-32.4167-32.3323c-4.9312 0-8.9385-4.0126-8.9385-8.9427h-.4c0 5.1507 4.1861 9.3427 9.3385 9.3427zm8.9385-8.9427c0 4.93-4.0109 8.9427-8.9385 8.9427v.4c5.1487 0 9.3385-4.1919 9.3385-9.3427zm-8.9385-8.9427c4.9276 0 8.9385 4.0126 8.9385 8.9427h.4c0-5.1508-4.1898-9.3427-9.3385-9.3427zm-8.9385 8.9427c0-4.9301 4.0073-8.9427 8.9385-8.9427v-.4c-5.1524 0-9.3385 4.1919-9.3385 9.3427zm50.1566 23.602c1.1978 3.0713.5807 6.7869-.7187 9.8736l.3686.1552c1.3189-3.1329 1.9742-6.9654.7228-10.1742zm-1.8302-2.7955c.8362.8324 1.4317 1.7786 1.8304 2.7958l.3724-.146c-.4178-1.066-1.0431-2.0597-1.9206-2.9332zm-6.8077-5.825c2.474 1.5256 4.5578 3.5916 6.8079 5.8252l.2818-.2838c-2.2438-2.2274-4.3597-4.3279-6.8797-5.8819zm-7.4976 2.0361c.4007-.5391 1.3394-1.644 2.6482-2.3138 1.2965-.6634 2.9573-.9027 4.8485.2771l.2118-.3394c-2.029-1.2657-3.8416-1.0106-5.2425-.2937-1.3886.7106-2.3714 1.872-2.787 2.4312zm-1.7999 2.7799c.5845-.9671 1.1553-1.9113 1.8-2.78l-.3212-.2384c-.6579.8866-1.2385 1.8475-1.8211 2.8115zm-.3669.6053c.1232-.2021.2454-.4042.3669-.6053l-.3423-.2069c-.1216.2012-.2434.4026-.3661.604zm-.0286.0474.029-.0481-.3424-.2068-.029.0481zm-7.2413 8.175c3.4908-1.9551 5.5091-5.3058 7.2413-8.175l-.3424-.2068c-1.7404 2.8827-3.7098 6.1372-7.0943 8.0328zm-11.7905-1.6546c1.3687.9301 3.0339 2.0564 4.9949 2.5925 1.9718.539 4.235.4799 6.7948-.9374l-.1938-.35c-2.4636 1.3642-4.6188 1.4146-6.4955.9015-1.8875-.5159-3.5007-1.6031-4.8755-2.5374zm-2.9945-1.7712c.9777.4295 1.9638 1.0761 2.9951 1.7716l.2237-.3316c-1.0281-.6933-2.0425-1.3601-3.058-1.8062zm-7.7095 4.2544c1.6365-2.0786 2.9885-3.3951 4.2208-4.0651 1.2165-.6613 2.3188-.6943 3.4898-.1888l.1586-.3672c-1.2855-.555-2.5166-.5145-3.8394.2046-1.3069.7105-2.7002 2.0811-4.344 4.169zm-5.157 6.4892c1.729-2.152 3.4358-4.3114 5.1568-6.4889l-.3138-.248c-1.7211 2.1777-3.427 4.3358-5.1548 6.4863zm.5559 3.8371c-1.2806-.7906-1.5221-2.6338-.5559-3.8372l-.3119-.2504c-1.1004 1.3705-.8492 3.4977.6577 4.428zm7.9008 2.0761c-3.0348 0-5.7115-.728-7.901-2.0762l-.2097.3406c2.2603 1.3918 5.0115 2.1356 8.1107 2.1356zm30.8209 0h-30.8209v.4h30.8209zm5.0826-.7713c-1.6394.536-3.3612.7713-5.0826.7713v.4c1.7574 0 3.5219-.2402 5.2069-.7911zm8.1447-7.609c-1.5304 3.6471-4.4584 6.4049-8.1447 7.609l.1242.3802c3.8011-1.2415 6.8159-4.0845 8.3893-7.8345z" fill="url(#g)" fill-opacity=".5" mask="url(#i)"/></g></svg>