<svg fill="none" height="99" viewBox="0 0 127 99" width="127" xmlns="http://www.w3.org/2000/svg" xmlns:xlink="http://www.w3.org/1999/xlink"><filter id="a" color-interpolation-filters="sRGB" filterUnits="userSpaceOnUse" height="83.1254" width="83.8625" x="48.4412" y="12.8369"><feFlood flood-opacity="0" result="BackgroundImageFix"/><feGaussianBlur in="BackgroundImageFix" stdDeviation="6.5"/><feComposite in2="SourceAlpha" operator="in" result="effect1_backgroundBlur_1_93"/><feBlend in="SourceGraphic" in2="effect1_backgroundBlur_1_93" mode="normal" result="shape"/></filter><filter id="b" color-interpolation-filters="sRGB" filterUnits="userSpaceOnUse" height="72.0484" width="72.5136" x="46.3809" y="18.3378"><feFlood flood-opacity="0" result="BackgroundImageFix"/><feBlend in="SourceGraphic" in2="BackgroundImageFix" mode="normal" result="shape"/><feGaussianBlur result="effect1_foregroundBlur_1_93" stdDeviation="9"/></filter><filter id="c" color-interpolation-filters="sRGB" filterUnits="userSpaceOnUse" height="38.785" width="38.8871" x="83.0354" y="1.36481"><feFlood flood-opacity="0" result="BackgroundImageFix"/><feGaussianBlur in="BackgroundImageFix" stdDeviation="6.5"/><feComposite in2="SourceAlpha" operator="in" result="effect1_backgroundBlur_1_93"/><feBlend in="SourceGraphic" in2="effect1_backgroundBlur_1_93" mode="normal" result="shape"/></filter><filter id="d" color-interpolation-filters="sRGB" filterUnits="userSpaceOnUse" height="134.678" width="136.749" x="-20.6006" y="-20.8427"><feFlood flood-opacity="0" result="BackgroundImageFix"/><feGaussianBlur in="BackgroundImageFix" stdDeviation="12"/><feComposite in2="SourceAlpha" operator="in" result="effect1_backgroundBlur_1_93"/><feBlend in="SourceGraphic" in2="effect1_backgroundBlur_1_93" mode="normal" result="shape"/></filter><filter id="e" color-interpolation-filters="sRGB" filterUnits="userSpaceOnUse" height="46.3926" width="45.4928" x="48.4535" y="2.06897"><feFlood flood-opacity="0" result="BackgroundImageFix"/><feGaussianBlur in="BackgroundImageFix" stdDeviation="7.5"/><feComposite in2="SourceAlpha" operator="in" result="effect1_backgroundBlur_1_93"/><feColorMatrix in="SourceAlpha" result="hardAlpha" type="matrix" values="0 0 0 0 0 0 0 0 0 0 0 0 0 0 0 0 0 0 127 0"/><feOffset dx="5" dy="5"/><feGaussianBlur stdDeviation="5"/><feColorMatrix type="matrix" values="0 0 0 0 1 0 0 0 0 0.321569 0 0 0 0 0.54902 0 0 0 0.5 0"/><feBlend in2="effect1_backgroundBlur_1_93" mode="normal" result="effect2_dropShadow_1_93"/><feBlend in="SourceGraphic" in2="effect2_dropShadow_1_93" mode="normal" result="shape"/></filter><linearGradient id="f"><stop offset="0" stop-color="#ff759f"/><stop offset="1" stop-color="#ff196e"/></linearGradient><linearGradient id="g" gradientUnits="userSpaceOnUse" x1="87.953" x2="30.4139" xlink:href="#f" y1="64.1417" y2="60.2523"/><linearGradient id="h" gradientUnits="userSpaceOnUse" x1="102.169" x2="89.4262" xlink:href="#f" y1="22.6899" y2="22.9497"/><linearGradient id="i"><stop offset="0" stop-color="#fff" stop-opacity=".25"/><stop offset="1" stop-color="#fff" stop-opacity="0"/></linearGradient><linearGradient id="j" gradientUnits="userSpaceOnUse" x1="15.2881" x2="78.1957" xlink:href="#i" y1="21.9621" y2="79.995"/><linearGradient id="k" gradientUnits="userSpaceOnUse" x1="76.0536" x2="61.0123" y1="18.691" y2="21.6871"><stop offset="0" stop-color="#fff"/><stop offset="1" stop-color="#fff" stop-opacity=".2"/></linearGradient><linearGradient id="l" gradientUnits="userSpaceOnUse" x1="65.422" x2="78.7253" xlink:href="#i" y1="19.3761" y2="28.3488"/><mask id="m" fill="#000" height="98.9319" maskUnits="userSpaceOnUse" width="102.191" x="-1.15588" y="-1.1558"><path d="m-1.15588-1.1558h102.191v98.9319h-102.191z" fill="#fff"/><path d="m67.5521 4.42618c-2.7165-.41721-5.4829-.33136-8.1875.13671-5.9653.98822-11.4062 3.96056-15.5384 8.42371-.437-.229-.9537-.4089-1.4261-.5876-.4739-.1873-1.3559-.6924-2.0582-.924l-1.7549-.4468c-.9388-.3231-1.894-.511-2.8939-.6514-.0998-.0666-.244-.1343-.4295-.1861l-.2529.0438c-2.6823-.42319-5.3785-.44218-8.0929-.0563l-.4715.0816c-1.2002.2077-2.3819.4961-3.5559.8803l-.5144.089c-1.2569.3897-2.4866.9115-3.6554 1.5553-15.08627 8.0011-17.78274 26.3469-10.31337 40.682 4.08507 7.279 9.72147 13.548 16.46567 18.3361 9.7485 6.6124 20.1138 12.1468 30.9783 16.5354l1.2339.4972.9595-.8327c8.7162-7.8213 16.5674-16.5083 23.457-25.956 4.7815-6.7828 7.9716-14.6234 9.33-22.8445 2.1361-15.9975-6.5688-32.37016-23.2795-34.77572z" fill="#000"/></mask><g filter="url(#a)"><path d="m114.869 43.846c-1.223-1.4329-2.697-2.6271-4.31-3.5952-3.538-2.1583-7.693-3.0521-11.8354-2.5863-.1242-.3145-.3119-.6392-.477-.9435-.162-.3094-.3936-.9665-.6543-1.4011l-.7106-1.0177c-.3425-.588-.7541-1.1132-1.2101-1.6338-.022-.0793-.0665-.179-.1396-.2889l-.1508-.0906c-1.2025-1.4206-2.5932-2.6377-4.1746-3.6529l-.2812-.1688c-.7158-.4296-1.4582-.8091-2.2395-1.1355l-.3067-.1841c-.8268-.3606-1.6986-.6404-2.5934-.8297-11.4115-2.6031-21.0256 5.7099-23.5683 16.4936-1.1395 5.6065-1.0216 11.3836.3343 16.8882 2.098 7.7966 4.9988 15.3099 8.6718 22.4521l.4177.8105.8708-.0024c8.0253-.156 15.9894-1.1485 23.7951-2.9663 5.5188-1.3788 10.6848-4.0192 15.0708-7.6772 8.272-7.3452 11.086-19.7395 3.491-28.4704z" fill="url(#g)"/></g><g filter="url(#b)" opacity=".5"><path d="m98.096 47.7022c-.7717-.9042-1.7018-1.6577-2.7198-2.2687-2.2327-1.3619-4.8543-1.926-7.4686-1.632-.0784-.1985-.1968-.4034-.301-.5954-.1023-.1952-.2484-.6099-.4129-.8842l-.4484-.6421c-.2162-.3711-.4759-.7026-.7637-1.0311-.0138-.05-.0419-.1129-.088-.1823l-.0952-.0571c-.7588-.8965-1.6364-1.6646-2.6343-2.3052l-.1775-.1065c-.4517-.2711-.9202-.5106-1.4132-.7165l-.1936-.1162c-.5217-.2275-1.0718-.4041-1.6365-.5236-7.2011-1.6426-13.268 3.6032-14.8725 10.4081-.7191 3.538-.6447 7.1836.2109 10.6572 1.3239 4.9199 3.1545 9.6612 5.4723 14.1682l.2636.5115.5495-.0016c5.0643-.0984 10.09-.7247 15.0157-1.8718 3.4823-.8701 6.7425-2.5363 9.5103-4.8447 5.2199-4.6351 6.9959-12.4564 2.2029-17.966z" fill="#ee2965"/></g><g filter="url(#c)"><path d="m107.701 17.6996c-.297-.2917-.644-.526-1.018-.7079-.821-.4065-1.753-.5227-2.656-.3398-.034-.0668-.081-.1347-.123-.1985-.042-.0649-.106-.2051-.172-.2957l-.176-.2103c-.087-.1228-.187-.2305-.298-.3362-.006-.0171-.018-.0381-.036-.0609l-.035-.017c-.292-.2895-.622-.5305-.99-.7233l-.065-.0317c-.166-.0807-.337-.1498-.515-.2065l-.071-.0346c-.189-.0634-.387-.108-.587-.1324-2.5633-.3517-4.5187 1.6649-4.8693 4.0883-.1421 1.2565-.0041 2.526.4012 3.7116.6131 1.6758 1.3975 3.2736 2.3446 4.7748l.1077.1703.1917-.0174c1.7641-.19 3.4981-.563 5.1811-1.1146 1.188-.4106 2.274-1.0921 3.169-1.9825 1.679-1.7776 2.058-4.5608.216-6.3357z" fill="url(#h)"/></g><g filter="url(#d)"><path d="m67.5521 4.42618c-2.7165-.41721-5.4829-.33136-8.1875.13671-5.9653.98822-11.4062 3.96056-15.5384 8.42371-.437-.229-.9537-.4089-1.4261-.5876-.4739-.1873-1.3559-.6924-2.0582-.924l-1.7549-.4468c-.9388-.3231-1.894-.511-2.8939-.6514-.0998-.0666-.244-.1343-.4295-.1861l-.2529.0438c-2.6823-.42319-5.3785-.44218-8.0929-.0563l-.4715.0816c-1.2002.2077-2.3819.4961-3.5559.8803l-.5144.089c-1.2569.3897-2.4866.9115-3.6554 1.5553-15.08627 8.0011-17.78274 26.3469-10.31337 40.682 4.08507 7.279 9.72147 13.548 16.46567 18.3361 9.7485 6.6124 20.1138 12.1468 30.9783 16.5354l1.2339.4972.9595-.8327c8.7162-7.8213 16.5674-16.5083 23.457-25.956 4.7815-6.7828 7.9716-14.6234 9.33-22.8445 2.1361-15.9975-6.5688-32.37016-23.2795-34.77572z" fill="#ff749f" fill-opacity=".35"/><path d="m59.3646 4.56289.1635.98658.007-.00123zm-15.5384 8.42371-.4642.8857c.4001.2097.8911.1251 1.198-.2063zm-1.4261-.5876-.3675.93c.0045.0018.0091.0036.0137.0053zm-2.0582-.924.3132-.9497c-.0219-.0072-.0441-.0137-.0665-.0194zm-1.7549-.4468-.3254.9456c.0259.0089.0522.0167.0787.0235zm-2.8939-.6514-.555.8318c.125.0834.2671.1376.416.1585zm-.4295-.1861.2687-.96323c-.143-.03988-.293-.04745-.4393-.02214zm-.2529.0438-.1559.9877c.1082.0171.2185.0163.3264-.0024zm-8.0929-.0563-.1408-.99004c-.0099.00141-.0198.00297-.0297.00469zm-4.0274.9619.1705.9853c.0476-.0082.0945-.0199.1405-.0349zm-.5144.089-.1705-.9854c-.0425.0074-.0844.0175-.1256.0302zm-3.6554 1.5553.4685.8834c.0047-.0025.0093-.005.0139-.0075zm-10.31337 40.682-.88683.4621c.00478.0092.00971.0183.01477.0273zm16.46567 18.3361-.5789.8154c.0058.0041.0117.0082.0176.0122zm30.9783 16.5354-.3745.9272.0008.0003zm1.2339.4972-.3738.9275c.3482.1403.7457.0738 1.0292-.1722zm.9595-.8327.6555.7553c.0041-.0037.0083-.0073.0124-.011zm23.457-25.956.808.5892c.0031-.0043.0062-.0086.0093-.013zm9.33-22.8445.9867.163c.0016-.0102.0032-.0204.0045-.0307zm-23.1277-35.76413c-2.8374-.43577-5.7135-.34417-8.5098.13977l.341 1.9707c2.613-.4522 5.2696-.53229 7.8652-.13365zm-8.5027.13857c-6.1892 1.0253-11.8293 4.10861-16.1088 8.73086l1.4676 1.3588c3.9849-4.30406 9.2267-7.16543 14.9681-8.11656zm-14.9108 8.52456c-.5065-.2655-1.1056-.4742-1.5365-.6372l-.7076 1.8706c.5139.1944.9482.3455 1.3157.538zm-1.5227-.6319c-.19-.075-.4679-.2174-.8739-.4147-.3671-.1785-.8171-.3899-1.2387-.529l-.6264 1.8994c.2807.0925.6229.2495.9908.4283.3291.16.7291.3638 1.0131.476zm-2.1791-.9631-1.7549-.4468-.4934 1.9382 1.7549.4468zm-1.6761-.4233c-1.0229-.35202-2.0476-.55107-3.0804-.69607l-.278 1.98057c.967.1358 1.8527.3125 2.7075.6067zm-2.6644-.53762c-.2023-.135-.4469-.24249-.7158-.31751l-.5375 1.92643c.0489.0137.0857.0276.111.0387.026.0115.0357.0183.0323.016zm-1.1551-.33965-.2529.04377.3411 1.9707.2529-.0438zm.0735.04134c-2.7813-.43877-5.5775-.45827-8.3895-.05851l.2815 1.98004c2.6169-.372 5.2131-.3535 7.7963.054zm-8.4192-.05382-.4715.08159.341 1.97076.4715-.0816zm-.4715.08159c-1.2452.21549-2.474.51521-3.6964.91526l.622 1.9008c1.1256-.3684 2.2603-.6454 3.4154-.8453zm-3.556.88026-.5143.089.341 1.9707.5144-.089zm-.6399.1192c-1.3216.4098-2.6137.9581-3.8418 1.6345l.9649 1.7519c1.1096-.6111 2.2768-1.1064 3.4691-1.4761zm-3.8279 1.627c-15.70569 8.3297-18.378498 27.3518-10.7316 42.0276l1.77366-.9242c-7.29184-13.9944-4.57171-31.6639 9.89504-39.3365zm-10.71683 42.0549c4.15713 7.4074 9.89333 13.7879 16.75883 18.6621l1.1578-1.6308c-6.623-4.702-12.1595-10.8594-16.17251-18.0101zm16.77643 18.6743c9.8066 6.6518 20.2345 12.2198 31.1651 16.635l.7491-1.8545c-10.7985-4.3618-21.1012-9.8627-30.7915-16.4356zm31.1659 16.6353 1.2338.4972.7476-1.855-1.2339-.4973zm2.263.325.9596-.8327-1.3109-1.5106-.9595.8327zm.972-.8437c8.7681-7.8679 16.6662-16.6069 23.5971-26.1111l-1.616-1.1784c-6.8483 9.3911-14.6525 18.0261-23.3168 25.8009zm23.6064-26.1241c4.8695-6.9077 8.1167-14.8899 9.4994-23.2577l-1.9733-.3261c-1.3342 8.0745-4.4673 15.7735-9.1608 22.4314zm9.5039-23.2884c2.1857-16.3688-6.7177-33.39151-24.1282-35.89782l-.2849 1.9796c16.0108 2.30481 24.5172 18.02742 22.4307 33.65352z" fill="url(#j)" mask="url(#m)"/></g><g filter="url(#e)"><path d="m78.9284 29.602c.1838 1.8268-1.0724 3.4966-2.8216 3.8478-.9585.0732-1.9321-.1953-2.6583-.8201-.7261-.6249-1.1858-1.5209-1.2742-2.5166l-.023-.1328c-.5186-2.9961-2.8254-5.3825-5.7509-5.9357-1.9108-.3271-3.195-2.1356-2.9064-4.0397.3313-1.9115 2.0962-3.1925 3.9582-2.8923 5.897 1.1426 10.4773 5.9521 11.388 11.9793z" fill="url(#k)"/><path d="m72.3735 30.0954-.0008-.0082-.0014-.0082-.023-.1329c-.5322-3.0755-2.9006-5.5288-5.9108-6.0981l-.0034-.0006c-1.8013-.3083-3.0139-2.0135-2.7427-3.8104.3141-1.8052 1.9777-3.0076 3.7259-2.7275 5.811 1.1274 10.3271 5.8684 11.2251 11.8123l.0007.0043.087.5029c.1691 1.7174-1.0107 3.2866-2.6507 3.6223-.9093.0666-1.823-.1904-2.5004-.7733-.6858-.59-1.1216-1.4376-1.2055-2.3826z" stroke="url(#l)" stroke-width=".4"/></g></svg>