<svg fill="none" height="97" viewBox="0 0 105 97" width="105" xmlns="http://www.w3.org/2000/svg" xmlns:xlink="http://www.w3.org/1999/xlink"><filter id="a" color-interpolation-filters="sRGB" filterUnits="userSpaceOnUse" height="83.7159" width="82.8749" x="18.6103" y="4.71844"><feFlood flood-opacity="0" result="BackgroundImageFix"/><feBlend in="SourceGraphic" in2="BackgroundImageFix" mode="normal" result="shape"/><feGaussianBlur result="effect1_foregroundBlur_1_584" stdDeviation="9"/></filter><filter id="b" color-interpolation-filters="sRGB" filterUnits="userSpaceOnUse" height="131.667" width="127.583" x="-24" y="-14"><feFlood flood-opacity="0" result="BackgroundImageFix"/><feGaussianBlur in="BackgroundImageFix" stdDeviation="12"/><feComposite in2="SourceAlpha" operator="in" result="effect1_backgroundBlur_1_584"/><feBlend in="SourceGraphic" in2="effect1_backgroundBlur_1_584" mode="normal" result="shape"/></filter><filter id="c" color-interpolation-filters="sRGB" filterUnits="userSpaceOnUse" height="40" width="66" x="7" y="57"><feFlood flood-opacity="0" result="BackgroundImageFix"/><feGaussianBlur in="BackgroundImageFix" stdDeviation="7.5"/><feComposite in2="SourceAlpha" operator="in" result="effect1_backgroundBlur_1_584"/><feColorMatrix in="SourceAlpha" result="hardAlpha" type="matrix" values="0 0 0 0 0 0 0 0 0 0 0 0 0 0 0 0 0 0 127 0"/><feOffset dx="5" dy="5"/><feGaussianBlur stdDeviation="6"/><feColorMatrix type="matrix" values="0 0 0 0 0.15375 0 0 0 0 0.522433 0 0 0 0 0.9 0 0 0 0.28 0"/><feBlend in2="effect1_backgroundBlur_1_584" mode="normal" result="effect2_dropShadow_1_584"/><feBlend in="SourceGraphic" in2="effect2_dropShadow_1_584" mode="normal" result="shape"/></filter><linearGradient id="d" gradientUnits="userSpaceOnUse" x1="105.043" x2="11.6386" y1="18.1913" y2="56.9473"><stop offset="0" stop-color="#39affd"/><stop offset="1" stop-color="#477fff"/></linearGradient><linearGradient id="e" gradientUnits="userSpaceOnUse" x1="13.35" x2="81.7753" y1="20.5143" y2="83.9681"><stop offset="0" stop-color="#fff" stop-opacity=".25"/><stop offset="1" stop-color="#fff" stop-opacity="0"/></linearGradient><linearGradient id="f" gradientUnits="userSpaceOnUse" x1="53.5894" x2="16.3907" y1="73.4446" y2="78.5992"><stop offset="0" stop-color="#fff"/><stop offset="1" stop-color="#fff" stop-opacity=".2"/></linearGradient><linearGradient id="g" gradientUnits="userSpaceOnUse" x1="25.6625" x2="54.5182" y1="74.6836" y2="75.3606"><stop offset="0" stop-color="#fff"/><stop offset="1" stop-color="#fff" stop-opacity="0"/></linearGradient><path d="m82.9673 85.059c-2.9223 1.6763-6.3951 2.1229-9.6519 1.2412l-43.016-11.5261c-6.7928-1.8201-10.8283-8.7857-9.0137-15.558l8.3334-31.1005c.777-2.6502 2.7101-4.8086 5.2628-5.8762l28.1934-12.4321c4.9336-2.38784 10.8787-.90954 14.12 3.511l18.6738 25.2625c1.5682 2.2251 2.068 5.0274 1.3648 7.6521l-8.3419 31.1323c-.8706 3.2493-3.0023 6.0175-5.9247 7.6938z" fill="url(#d)"/><g filter="url(#a)" opacity=".5"><path d="m74.5751 69.4053c-1.7861 1.0245-3.9087 1.2974-5.8992.7586l-26.291-7.0447c-4.1517-1.1124-6.6182-5.3697-5.5091-9.5089l5.0933-19.0084c.4749-1.6197 1.6564-2.9389 3.2166-3.5914l17.2316-7.5984c3.0153-1.4594 6.6489-.5559 8.63 2.1459l11.4132 15.4402c.9584 1.3599 1.2639 3.0727.8341 4.6769l-5.0984 19.0278c-.5322 1.9859-1.835 3.6778-3.6211 4.7024z" fill="#0062ff"/></g><g filter="url(#b)"><path d="m74.4476 88.5866c-2.6477 2.6217-6.2374 4.0897-9.977 4.08h-49.3579c-7.79423 0-14.1127-6.2725-14.1127-14.0101v-35.5335c.07167-3.0471 1.52202-5.9 3.94863-7.7673l26.61667-21.3055c4.5967-3.9546 11.3855-4.07691 16.1236-.2904l27.2383 21.5959c2.3171 1.924 3.656 4.7685 3.6561 7.7673v35.5698c0 3.7124-1.488 7.2722-4.1357 9.8938z" fill="#3ea0fe" fill-opacity=".35"/><path d="m.500138 43.1113-.000138-.0001v.0118 35.5335c0 8.0171 6.54578 14.5101 14.6127 14.5101h49.3566c3.8712.01 7.5881-1.5096 10.3301-4.2247 2.7422-2.7151 4.2839-6.4027 4.2839-10.2491v-35.5698c-.0001-3.1482-1.4058-6.1335-3.8367-8.1519l.0001-.0001-.0089-.0071-27.2367-21.5947c-.0003-.0003-.0007-.0005-.001-.0008-4.9235-3.93388-11.9754-3.80862-16.7541.2969l-26.60611 21.2971c-2.54341 1.959-4.064546 4.9515-4.139752 8.1489z" stroke="url(#e)" stroke-linecap="round" stroke-linejoin="round"/></g><g filter="url(#c)"><rect fill="url(#f)" height="8" rx="4" width="34" x="22" y="72"/><rect height="7.8" rx="3.9" stroke="url(#g)" stroke-opacity=".5" stroke-width=".2" width="33.8" x="22.1" y="72.1"/></g></svg>