<svg fill="none" height="84" viewBox="0 0 94 84" width="94" xmlns="http://www.w3.org/2000/svg" xmlns:xlink="http://www.w3.org/1999/xlink"><filter id="a" color-interpolation-filters="sRGB" filterUnits="userSpaceOnUse" height="61" width="57" x=".651367" y="21.6914"><feFlood flood-opacity="0" result="BackgroundImageFix"/><feBlend in="SourceGraphic" in2="BackgroundImageFix" mode="normal" result="shape"/><feGaussianBlur result="effect1_foregroundBlur_1_309" stdDeviation="8"/></filter><filter id="b" color-interpolation-filters="sRGB" filterUnits="userSpaceOnUse" height="131.667" width="119.417" x="-2" y="-24"><feFlood flood-opacity="0" result="BackgroundImageFix"/><feGaussianBlur in="BackgroundImageFix" stdDeviation="12"/><feComposite in2="SourceAlpha" operator="in" result="effect1_backgroundBlur_1_309"/><feBlend in="SourceGraphic" in2="effect1_backgroundBlur_1_309" mode="normal" result="shape"/></filter><filter id="c" color-interpolation-filters="sRGB" filterUnits="userSpaceOnUse" height="52.6741" width="52.9138" x="31" y="9.58594"><feFlood flood-opacity="0" result="BackgroundImageFix"/><feGaussianBlur in="BackgroundImageFix" stdDeviation="7.5"/><feComposite in2="SourceAlpha" operator="in" result="effect1_backgroundBlur_1_309"/><feColorMatrix in="SourceAlpha" result="hardAlpha" type="matrix" values="0 0 0 0 0 0 0 0 0 0 0 0 0 0 0 0 0 0 127 0"/><feOffset dx="5" dy="5"/><feGaussianBlur stdDeviation="5"/><feColorMatrix type="matrix" values="0 0 0 0 0.15375 0 0 0 0 0.522433 0 0 0 0 0.9 0 0 0 0.5 0"/><feBlend in2="effect1_backgroundBlur_1_309" mode="normal" result="effect2_dropShadow_1_309"/><feBlend in="SourceGraphic" in2="effect2_dropShadow_1_309" mode="normal" result="shape"/></filter><linearGradient id="d" gradientUnits="userSpaceOnUse" x1="34.05" x2="87.2709" y1="10.5143" y2="66.5423"><stop offset="0" stop-color="#fff" stop-opacity=".25"/><stop offset="1" stop-color="#fff" stop-opacity="0"/></linearGradient><linearGradient id="e" gradientUnits="userSpaceOnUse" x1="67.2892" x2="41.766" y1="28.6804" y2="29.5214"><stop offset="0" stop-color="#fff"/><stop offset="1" stop-color="#fff" stop-opacity=".2"/></linearGradient><linearGradient id="f" gradientUnits="userSpaceOnUse" x1="48.4683" x2="67.9253" y1="32.192" y2="32.3005"><stop offset="0" stop-color="#fff"/><stop offset="1" stop-color="#fff" stop-opacity="0"/></linearGradient><mask id="g" fill="#fff"><path d="m57.4301 47.26c-6.2956 0-11.4301-4.9488-11.4301-11.2411 0-6.2432 5.1345-11.433 11.4301-11.433 6.2998 0 11.4837 5.1898 11.4837 11.433 0 6.2923-5.1839 11.2411-11.4837 11.2411z" fill="#fff"/></mask><path d="m29.0853 25c-12.6376 0-23.0853 10.1053-23.0853 22.6078 0 6.3002 2.28852 12.1492 6.0625 17.1067 4.1249 5.4685 9.2528 10.233 15.0577 13.9729 1.4499.9296 2.6421.8643 3.9631 0 5.7721-3.7399 10.9-8.5044 15.0604-13.9729 3.7713-4.9575 6.0626-10.8065 6.0626-17.1067 0-12.5025-10.4478-22.6078-23.121-22.6078z" fill="#4096fe"/><g filter="url(#a)" opacity=".5"><path d="m29.1417 37.6914c-6.8376 0-12.4903 5.3909-12.4903 12.0608 0 3.361 1.2382 6.4813 3.2801 9.126 2.2318 2.9173 5.0062 5.4591 8.147 7.4542.7844.4959 1.4295.4611 2.1443 0 3.1229-1.9951 5.8974-4.5369 8.1484-7.4542 2.0405-2.6447 3.2802-5.765 3.2802-9.126 0-6.6699-5.6528-12.0608-12.5097-12.0608z" fill="#004fff"/></g><g filter="url(#b)"><path d="m57.6816 1c-18.9858 0-34.6816 15.1814-34.6816 33.9642 0 9.4649 3.4381 18.2519 9.1079 25.6997 6.1968 8.2155 13.9006 15.3733 22.6214 20.9918 2.1782 1.3965 3.9693 1.2985 5.9539 0 8.6714-5.6185 16.3752-12.7763 22.6256-20.9918 5.6656-7.4478 9.1079-16.2348 9.1079-25.6997 0-18.7828-15.6959-33.9642-34.7351-33.9642z" fill="#3ea0fe" fill-opacity=".35"/><path d="m54.4585 82.0761.001.0006c1.1462.7348 2.2336 1.1034 3.3257 1.0896 1.0908-.0138 2.1264-.4084 3.1707-1.0914 8.7198-5.65 16.4659-12.8474 22.7508-21.1082 5.7214-7.521 9.21-16.4121 9.21-26.0025 0-19.071-15.932-34.4642-35.2351-34.4642-19.2502 0-35.1816 15.3937-35.1816 34.4642 0 9.5899 3.4841 18.4806 9.2093 26.0016 6.2323 8.2622 13.9793 15.4602 22.7492 21.1103z" stroke="url(#d)" stroke-linecap="round" stroke-linejoin="round"/></g><g filter="url(#c)"><path d="m57.4301 47.26c-6.2956 0-11.4301-4.9488-11.4301-11.2411 0-6.2432 5.1345-11.433 11.4301-11.433 6.2998 0 11.4837 5.1898 11.4837 11.433 0 6.2923-5.1839 11.2411-11.4837 11.2411z" fill="url(#e)"/><path d="m57.4301 47.06c-6.1895 0-11.2301-4.8636-11.2301-11.0411h-.4c0 6.407 5.2284 11.4411 11.6301 11.4411zm-11.2301-11.0411c0-6.1334 5.0456-11.233 11.2301-11.233v-.4c-6.4067 0-11.6301 5.28-11.6301 11.633zm11.2301-11.233c6.1898 0 11.2837 5.1008 11.2837 11.233h.4c0-6.3542-5.274-11.633-11.6837-11.633zm11.2837 11.233c0 6.1764-5.0888 11.0411-11.2837 11.0411v.4c6.4047 0 11.6837-5.0329 11.6837-11.4411z" fill="url(#f)" fill-opacity=".5" mask="url(#g)"/></g></svg>