<svg fill="none" height="106" viewBox="0 0 102 106" width="102" xmlns="http://www.w3.org/2000/svg" xmlns:xlink="http://www.w3.org/1999/xlink"><filter id="a" color-interpolation-filters="sRGB" filterUnits="userSpaceOnUse" height="84" width="78" x="0" y=".167969"><feFlood flood-opacity="0" result="BackgroundImageFix"/><feBlend in="SourceGraphic" in2="BackgroundImageFix" mode="normal" result="shape"/><feGaussianBlur result="effect1_foregroundBlur_1_511" stdDeviation="10.5"/></filter><filter id="b" color-interpolation-filters="sRGB" filterUnits="userSpaceOnUse" height="130.902" width="118.767" x="-1.96582" y="-1.62305"><feFlood flood-opacity="0" result="BackgroundImageFix"/><feGaussianBlur in="BackgroundImageFix" stdDeviation="12"/><feComposite in2="SourceAlpha" operator="in" result="effect1_backgroundBlur_1_511"/><feBlend in="SourceGraphic" in2="effect1_backgroundBlur_1_511" mode="normal" result="shape"/></filter><filter id="c" color-interpolation-filters="sRGB" filterUnits="userSpaceOnUse" height="50.8023" width="49.9558" x="51.4658" y="13.3887"><feFlood flood-opacity="0" result="BackgroundImageFix"/><feGaussianBlur in="BackgroundImageFix" stdDeviation="7.5"/><feComposite in2="SourceAlpha" operator="in" result="effect1_backgroundBlur_1_511"/><feColorMatrix in="SourceAlpha" result="hardAlpha" type="matrix" values="0 0 0 0 0 0 0 0 0 0 0 0 0 0 0 0 0 0 127 0"/><feOffset dx="5" dy="5"/><feGaussianBlur stdDeviation="5"/><feColorMatrix type="matrix" values="0 0 0 0 0.577356 0 0 0 0 0.359375 0 0 0 0 0.9375 0 0 0 0.25 0"/><feBlend in2="effect1_backgroundBlur_1_511" mode="normal" result="effect2_dropShadow_1_511"/><feBlend in="SourceGraphic" in2="effect2_dropShadow_1_511" mode="normal" result="shape"/></filter><linearGradient id="d" gradientUnits="userSpaceOnUse" x1="57.3577" x2="57.3577" y1="5" y2="85.9034"><stop offset="0" stop-color="#bc94ff"/><stop offset="1" stop-color="#9f66ff"/></linearGradient><linearGradient id="e"><stop offset="0" stop-color="#fff" stop-opacity=".25"/><stop offset="1" stop-color="#fff" stop-opacity="0"/></linearGradient><linearGradient id="f" gradientUnits="userSpaceOnUse" x1="33.9807" x2="86.7032" xlink:href="#e" y1="32.8021" y2="88.3055"/><linearGradient id="g"><stop offset="0" stop-color="#fff"/><stop offset="1" stop-color="#fff" stop-opacity=".2"/></linearGradient><linearGradient id="h" gradientUnits="userSpaceOnUse" x1="66.3977" x2="35.4406" xlink:href="#g" y1="59.8538" y2="60.9225"/><linearGradient id="i" gradientUnits="userSpaceOnUse" x1="44.9978" x2="61.5175" xlink:href="#e" y1="58.1716" y2="79.8347"/><linearGradient id="j" gradientUnits="userSpaceOnUse" x1="85.0068" x2="62.776" xlink:href="#g" y1="32.1452" y2="32.8405"/><linearGradient id="k" gradientUnits="userSpaceOnUse" x1="69.6425" x2="83.0177" xlink:href="#e" y1="30.8122" y2="46.7037"/><mask id="l" fill="#fff"><path clip-rule="evenodd" d="m57.1141 55.1133h-13.5371c-1.642 0-3.0038 1.3753-3.0038 3.0338s1.3618 2.9934 3.0038 2.9934h13.5371c1.642 0 3.0038-1.3349 3.0038-2.9934s-1.3618-3.0338-3.0038-3.0338zm-13.537 26.2515h21.7875c1.642 0 3.0037-1.3753 3.0037-3.0338s-1.3617-2.9934-3.0037-2.9934h-21.7875c-1.6421 0-3.0038 1.3349-3.0038 2.9934s1.3617 3.0338 3.0038 3.0338z" fill="#fff" fill-rule="evenodd"/></mask><mask id="m" fill="#fff"><path d="m74.544 49.158c2.7915.0283 6.6724.0405 9.9646.0283 1.6861-.004 2.5432-2.0387 1.3737-3.2644-4.2293-4.4415-11.7949-12.3901-16.1243-16.9368-1.1975-1.258-3.2922-.3924-3.2922 1.3511v10.6628c0 4.4739 3.6486 8.159 8.0782 8.159z" fill="#fff"/></mask><path clip-rule="evenodd" d="m8 63.3508v-40.1883c.00001-10.0319 8.0501-18.1625 17.9827-18.1625h31.8801c10.4131 0 18.9038 8.5352 18.9038 19.0524v3.5002 40.1883c0 10.0319-8.0501 18.1625-17.9826 18.1625h-31.8802c-10.4131 0-18.90378-8.5352-18.90378-19.0524z" fill="url(#d)" fill-rule="evenodd"/><g filter="url(#a)" opacity=".5"><rect fill="#8237ff" fill-opacity=".5" height="36" rx="5" transform="matrix(0 -1 1 0 -42.168 84.168)" width="42" x="21" y="63.168"/></g><g filter="url(#b)"><path d="m41.0969 23.377h29.7392l20.9647 22.551v40.1884c0 10.0318-8.0501 18.1626-17.9826 18.1626h-31.8802c-10.4131 0-18.9038-8.5353-18.9038-19.0525v-43.6062c0-10.0318 8.0902-18.2433 18.0627-18.2433z" fill="#ba90ff" fill-opacity=".35"/><path d="m71.2023 23.0365c-.0946-.1017-.2272-.1595-.3662-.1595h-29.7392c-10.2541 0-18.5627 8.4408-18.5627 18.7433v43.6062c0 10.79 8.7112 19.5525 19.4038 19.5525h31.8802c10.2133 0 18.4826-8.3593 18.4826-18.6626v-40.1884c0-.1263-.0478-.2479-.1338-.3404z" stroke="url(#f)" stroke-linecap="round" stroke-linejoin="round"/></g><path clip-rule="evenodd" d="m57.1141 55.1133h-13.5371c-1.642 0-3.0038 1.3753-3.0038 3.0338s1.3618 2.9934 3.0038 2.9934h13.5371c1.642 0 3.0038-1.3349 3.0038-2.9934s-1.3618-3.0338-3.0038-3.0338zm-13.537 26.2515h21.7875c1.642 0 3.0037-1.3753 3.0037-3.0338s-1.3617-2.9934-3.0037-2.9934h-21.7875c-1.6421 0-3.0038 1.3349-3.0038 2.9934s1.3617 3.0338 3.0038 3.0338z" fill="url(#h)" fill-rule="evenodd"/><path d="m43.577 55.5133h13.5371v-.8h-13.5371zm-2.6038 2.6338c0-1.4413 1.1864-2.6338 2.6038-2.6338v-.8c-1.8667 0-3.4038 1.5582-3.4038 3.4338zm2.6038 2.5934c-1.4244 0-2.6038-1.159-2.6038-2.5934h-.8c0 1.8826 1.5441 3.3934 3.4038 3.3934zm13.5371 0h-13.5371v.8h13.5371zm2.6038-2.5934c0 1.4344-1.1794 2.5934-2.6038 2.5934v.8c1.8597 0 3.4038-1.5108 3.4038-3.3934zm-2.6038-2.6338c1.4174 0 2.6038 1.1925 2.6038 2.6338h.8c0-1.8756-1.5371-3.4338-3.4038-3.4338zm8.2505 25.4515h-21.7875v.8h21.7875zm2.6037-2.6338c0 1.4413-1.1863 2.6338-2.6037 2.6338v.8c1.8667 0 3.4037-1.5582 3.4037-3.4338zm-2.6037-2.5934c1.4244 0 2.6037 1.159 2.6037 2.5934h.8c0-1.8827-1.544-3.3934-3.4037-3.3934zm-21.7875 0h21.7875v-.8h-21.7875zm-2.6038 2.5934c0-1.4344 1.1794-2.5934 2.6038-2.5934v-.8c-1.8597 0-3.4038 1.5107-3.4038 3.3934zm2.6038 2.6338c-1.4174 0-2.6038-1.1925-2.6038-2.6338h-.8c0 1.8756 1.5371 3.4338 3.4038 3.4338z" fill="url(#i)" mask="url(#l)"/><g filter="url(#c)"><path d="m74.544 49.158c2.7915.0283 6.6724.0405 9.9646.0283 1.6861-.004 2.5432-2.0387 1.3737-3.2644-4.2293-4.4415-11.7949-12.3901-16.1243-16.9368-1.1975-1.258-3.2922-.3924-3.2922 1.3511v10.6628c0 4.4739 3.6486 8.159 8.0782 8.159z" fill="url(#j)"/><path d="m84.5086 49.1863-.001-.4h-.0005zm1.3737-3.2644-.2897.2759.0003.0003zm-16.1243-16.9368-.2898.2758.0001.0001zm4.7819 20.5729c2.7936.0283 6.6763.0405 9.9701.0283l-.0029-.8c-3.2905.0122-7.1695 0-9.959-.0283zm9.9696.0283c2.044-.0049 3.0698-2.4653 1.6622-3.9405l-.5788.5523c.9313.9761.243 2.585-1.0853 2.5882zm1.6625-3.9402c-4.2322-4.4445-11.7919-12.387-16.1244-16.9368l-.5793.5517c4.3265 4.5435 11.8979 12.4983 16.1243 16.9368zm-16.1243-16.9368c-1.4564-1.53-3.9819-.4633-3.9819 1.6269h.8c0-1.3967 1.6638-2.0614 2.6024-1.0753zm-3.9819 1.6269v10.6628h.8v-10.6628zm0 10.6628c0 4.6911 3.824 8.559 8.4782 8.559v-.8c-4.2049 0-7.6782-3.5022-7.6782-7.759z" fill="url(#k)" mask="url(#m)"/></g></svg>