<svg fill="none" height="96" viewBox="0 0 99 96" width="99" xmlns="http://www.w3.org/2000/svg" xmlns:xlink="http://www.w3.org/1999/xlink"><filter id="a" color-interpolation-filters="sRGB" filterUnits="userSpaceOnUse" height="89.6257" width="89.5161" x="9.19296" y=".093117"><feFlood flood-opacity="0" result="BackgroundImageFix"/><feBlend in="SourceGraphic" in2="BackgroundImageFix" mode="normal" result="shape"/><feGaussianBlur result="effect1_foregroundBlur_1_325" stdDeviation="10"/></filter><filter id="b" color-interpolation-filters="sRGB" filterUnits="userSpaceOnUse" height="121.108" width="121.107" x="-24" y="-1.45668"><feFlood flood-opacity="0" result="BackgroundImageFix"/><feGaussianBlur in="BackgroundImageFix" stdDeviation="12"/><feComposite in2="SourceAlpha" operator="in" result="effect1_backgroundBlur_1_325"/><feBlend in="SourceGraphic" in2="effect1_backgroundBlur_1_325" mode="normal" result="shape"/></filter><filter id="c" color-interpolation-filters="sRGB" filterUnits="userSpaceOnUse" height="38.5301" width="70.3546" x="1.35886" y="39.8347"><feFlood flood-opacity="0" result="BackgroundImageFix"/><feGaussianBlur in="BackgroundImageFix" stdDeviation="7.5"/><feComposite in2="SourceAlpha" operator="in" result="effect1_backgroundBlur_1_325"/><feColorMatrix in="SourceAlpha" result="hardAlpha" type="matrix" values="0 0 0 0 0 0 0 0 0 0 0 0 0 0 0 0 0 0 127 0"/><feOffset dx="5" dy="5"/><feGaussianBlur stdDeviation="5"/><feColorMatrix type="matrix" values="0 0 0 0 0.577356 0 0 0 0 0.359375 0 0 0 0 0.9375 0 0 0 0.5 0"/><feBlend in2="effect1_backgroundBlur_1_325" mode="normal" result="effect2_dropShadow_1_325"/><feBlend in="SourceGraphic" in2="effect2_dropShadow_1_325" mode="normal" result="shape"/></filter><linearGradient id="d" gradientUnits="userSpaceOnUse" x1="62.0898" x2="45.9393" y1="15.0752" y2="75.3494"><stop offset="0" stop-color="#bc94ff"/><stop offset="1" stop-color="#9f66ff"/></linearGradient><linearGradient id="e"><stop offset="0" stop-color="#fff" stop-opacity=".25"/><stop offset="1" stop-color="#fff" stop-opacity="0"/></linearGradient><linearGradient id="f" gradientUnits="userSpaceOnUse" x1="12.3192" x2="57.6782" xlink:href="#e" y1="31.8274" y2="88.0057"/><linearGradient id="g" gradientUnits="userSpaceOnUse" x1="53.8523" x2="9.89911" y1="56.3751" y2="63.1547"><stop offset="0" stop-color="#fff"/><stop offset="1" stop-color="#fff" stop-opacity=".2"/></linearGradient><linearGradient id="h" gradientUnits="userSpaceOnUse" x1="22.7826" x2="24.6289" xlink:href="#e" y1="55.8285" y2="66.6459"/><mask id="i" fill="#000" height="74" maskUnits="userSpaceOnUse" width="74" x="0" y="22.5433"><path d="m0 22.5433h74v74h-74z" fill="#fff"/><path d="m51.9841 23.5433h-30.8251c-12.05275 0-20.159 8.4618-20.159 21.0478v29.0475c0 12.5504 8.10625 21.0122 20.159 21.0122h30.8251c12.0527 0 20.1234-8.4618 20.1234-21.0122v-29.0475c0-12.586-8.0707-21.0478-20.1234-21.0478z" fill="#000"/></mask><mask id="j" fill="#fff"><path clip-rule="evenodd" d="m16.3589 59.0976c0 2.3466 1.9199 4.2665 4.2664 4.2665 2.3466 0 4.2665-1.9199 4.2665-4.2665 0-2.3465-1.9199-4.2629-4.2665-4.2629-2.3465 0-4.2664 1.9164-4.2664 4.2629zm20.1955 4.2668c-2.3466 0-4.2665-1.9199-4.2665-4.2664 0-2.3466 1.9199-4.2629 4.2665-4.2629 2.3465 0 4.2664 1.9163 4.2664 4.2629 0 2.3465-1.9199 4.2664-4.2664 4.2664zm15.9281.0004c-2.3465 0-4.2664-1.9199-4.2664-4.2664 0-2.3466 1.9199-4.2629 4.2664-4.2629 2.3466 0 4.2309 1.9163 4.2309 4.2629 0 2.3465-1.8843 4.2664-4.2309 4.2664z" fill="#fff" fill-rule="evenodd"/></mask><path d="m75.1693 18.5799-26.1289-7.0013c-10.2165-2.73745-19.0096 2.594-21.8683 13.2626l-6.5974 24.622c-2.8506 10.6384 2.0988 19.6522 12.3153 22.3897l26.1289 7.0012c10.2164 2.7375 18.9795-2.6021 21.83-13.2405l6.5975-24.622c2.8586-10.6685-2.0606-19.6742-12.2771-22.4117z" fill="url(#d)"/><g filter="url(#a)" opacity=".5"><rect fill="#8237ff" height="43.4826" rx="10" transform="matrix(.30089555 -.9536571 .9536571 .30089555 -37.804316 66.78666)" width="43.6506" x="26.6501" y="59.178"/></g><g filter="url(#b)"><path d="m51.9841 23.5433h-30.8251c-12.05275 0-20.159 8.4618-20.159 21.0478v29.0475c0 12.5504 8.10625 21.0122 20.159 21.0122h30.8251c12.0527 0 20.1234-8.4618 20.1234-21.0122v-29.0475c0-12.586-8.0707-21.0478-20.1234-21.0478z" fill="#ba90ff" fill-opacity=".35"/><path d="m51.9841 24.5433c.5523 0 1-.4477 1-1s-.4477-1-1-1zm0-2c-.5523 0-1 .4477-1 1s.4477 1 1 1zm0 0h-30.8251v2h30.8251zm-30.8251 0c-6.2692 0-11.57994 2.2062-15.32145 6.1125-3.73793 3.9024-5.83755 9.4256-5.83755 15.9353h2c0-6.0762 1.9535-11.077 5.28189-14.5519 3.32481-3.4712 8.09351-5.4959 13.87711-5.4959zm-21.159 22.0478v29.0475h2v-29.0475zm0 29.0475c0 6.4927 2.10007 12.0069 5.83797 15.9047 3.74138 3.9014 9.05193 6.1075 15.32103 6.1075v-2c-5.7836 0-10.5526-2.0247-13.87753-5.4918-3.32842-3.4708-5.28147-8.4627-5.28147-14.5204zm21.159 22.0122h30.8251v-2h-30.8251zm30.8251 0c6.2693 0 11.5714-2.2063 15.3041-6.1084 3.7289-3.8982 5.8193-9.4123 5.8193-15.9038h-2c0 6.0589-1.9449 11.0509-5.2646 14.5213-3.3158 3.4664-8.0754 5.4909-13.8588 5.4909zm21.1234-22.0122v-29.0475h-2v29.0475zm0-29.0475c0-6.5085-2.09-12.0315-5.8189-15.9344-3.7328-3.907-9.0352-6.1134-15.3045-6.1134v2c5.7834 0 10.5427 2.0245 13.8584 5.495 3.3196 3.4745 5.265 8.4754 5.265 14.5528z" fill="url(#f)" mask="url(#i)"/></g><g filter="url(#c)"><path clip-rule="evenodd" d="m16.3589 59.0976c0 2.3466 1.9199 4.2665 4.2664 4.2665 2.3466 0 4.2665-1.9199 4.2665-4.2665 0-2.3465-1.9199-4.2629-4.2665-4.2629-2.3465 0-4.2664 1.9164-4.2664 4.2629zm20.1955 4.2668c-2.3466 0-4.2665-1.9199-4.2665-4.2664 0-2.3466 1.9199-4.2629 4.2665-4.2629 2.3465 0 4.2664 1.9163 4.2664 4.2629 0 2.3465-1.9199 4.2664-4.2664 4.2664zm15.9281.0004c-2.3465 0-4.2664-1.9199-4.2664-4.2664 0-2.3466 1.9199-4.2629 4.2664-4.2629 2.3466 0 4.2309 1.9163 4.2309 4.2629 0 2.3465-1.8843 4.2664-4.2309 4.2664z" fill="url(#g)" fill-rule="evenodd"/><path d="m20.6253 62.9641c-2.1256 0-3.8664-1.7409-3.8664-3.8665h-.8c0 2.5675 2.0989 4.6665 4.6664 4.6665zm3.8665-3.8665c0 2.1256-1.7409 3.8665-3.8665 3.8665v.8c2.5675 0 4.6665-2.099 4.6665-4.6665zm-3.8665-3.8629c2.1261 0 3.8665 1.7377 3.8665 3.8629h.8c0-2.5679-2.0995-4.6629-4.6665-4.6629zm-3.8664 3.8629c0-2.1252 1.7403-3.8629 3.8664-3.8629v-.8c-2.567 0-4.6664 2.095-4.6664 4.6629zm15.129.0004c0 2.5675 2.099 4.6664 4.6665 4.6664v-.8c-2.1257 0-3.8665-1.7408-3.8665-3.8664zm4.6665-4.6629c-2.567 0-4.6665 2.095-4.6665 4.6629h.8c0-2.1252 1.7404-3.8629 3.8665-3.8629zm4.6664 4.6629c0-2.5679-2.0994-4.6629-4.6664-4.6629v.8c2.1261 0 3.8664 1.7377 3.8664 3.8629zm-4.6664 4.6664c2.5674 0 4.6664-2.0989 4.6664-4.6664h-.8c0 2.1256-1.7408 3.8664-3.8664 3.8664zm11.2617-4.666c0 2.5674 2.099 4.6664 4.6664 4.6664v-.8c-2.1256 0-3.8664-1.7408-3.8664-3.8664zm4.6664-4.6629c-2.567 0-4.6664 2.095-4.6664 4.6629h.8c0-2.1252 1.7403-3.8629 3.8664-3.8629zm4.6309 4.6629c0-2.5636-2.0595-4.6629-4.6309-4.6629v.8c2.1217 0 3.8309 1.7333 3.8309 3.8629zm-4.6309 4.6664c2.5718 0 4.6309-2.1033 4.6309-4.6664h-.8c0 2.13-1.7096 3.8664-3.8309 3.8664z" fill="url(#h)" mask="url(#j)"/></g></svg>