<svg fill="none" height="96" viewBox="0 0 108 96" width="108" xmlns="http://www.w3.org/2000/svg" xmlns:xlink="http://www.w3.org/1999/xlink"><filter id="a" color-interpolation-filters="sRGB" filterUnits="userSpaceOnUse" height="80.354" width="81.8897" x="2.11609" y=".120064"><feFlood flood-opacity="0" result="BackgroundImageFix"/><feBlend in="SourceGraphic" in2="BackgroundImageFix" mode="normal" result="shape"/><feGaussianBlur result="effect1_foregroundBlur_1_355" stdDeviation="8"/></filter><filter id="b" color-interpolation-filters="sRGB" filterUnits="userSpaceOnUse" height="105.5" width="113.667" x="8" y="5"><feFlood flood-opacity="0" result="BackgroundImageFix"/><feGaussianBlur in="BackgroundImageFix" stdDeviation="7.5"/><feComposite in2="SourceAlpha" operator="in" result="effect1_backgroundBlur_1_355"/><feBlend in="SourceGraphic" in2="effect1_backgroundBlur_1_355" mode="normal" result="shape"/></filter><filter id="c" color-interpolation-filters="sRGB" filterUnits="userSpaceOnUse" height="52.9937" width="85.1758" x="22.375" y="27.2285"><feFlood flood-opacity="0" result="BackgroundImageFix"/><feGaussianBlur in="BackgroundImageFix" stdDeviation="7.5"/><feComposite in2="SourceAlpha" operator="in" result="effect1_backgroundBlur_1_355"/><feColorMatrix in="SourceAlpha" result="hardAlpha" type="matrix" values="0 0 0 0 0 0 0 0 0 0 0 0 0 0 0 0 0 0 127 0"/><feOffset dx="5" dy="5"/><feGaussianBlur stdDeviation="5"/><feColorMatrix type="matrix" values="0 0 0 0 1 0 0 0 0 0.447059 0 0 0 0 0.368627 0 0 0 0.5 0"/><feBlend in2="effect1_backgroundBlur_1_355" mode="normal" result="effect2_dropShadow_1_355"/><feBlend in="SourceGraphic" in2="effect2_dropShadow_1_355" mode="normal" result="shape"/></filter><linearGradient id="d" gradientUnits="userSpaceOnUse" x1="50.2033" x2="-.62813" y1="46.1374" y2="94.1727"><stop offset="0" stop-color="#ffa78f"/><stop offset="1" stop-color="#f23e2c"/></linearGradient><linearGradient id="e" gradientUnits="userSpaceOnUse" x1="37" x2="82.6171" y1="29.5628" y2="92.3383"><stop offset="0" stop-color="#fff" stop-opacity=".25"/><stop offset="1" stop-color="#fff" stop-opacity="0"/></linearGradient><linearGradient id="f" gradientUnits="userSpaceOnUse" x1="88.6389" x2="27.4873" y1="46.3807" y2="51.1651"><stop offset="0" stop-color="#fff"/><stop offset="1" stop-color="#fff" stop-opacity=".2"/></linearGradient><linearGradient id="g" gradientUnits="userSpaceOnUse" x1="90.1867" x2="36.9822" y1="54.2117" y2="59.5304"><stop offset="0" stop-color="#fff"/><stop offset="1" stop-color="#fff" stop-opacity="0"/></linearGradient><mask id="h" fill="#000" height="76" maskUnits="userSpaceOnUse" width="84" x="23" y="20"><path d="m23 20h84v76h-84z" fill="#fff"/><path d="m99.6192 27.0474c-3.875-3.8832-9.1425-6.0474-14.6183-6.0474h-40.3392c-11.4375 0-20.6617 9.2283-20.6617 20.6208v32.2584c0 11.3925 9.2651 20.6208 20.6617 20.6208h40.3392c11.3966 0 20.6661-9.2283 20.6661-20.6208v-32.2584c0-5.4716-2.169-10.6983-6.0478-14.5734z" fill="#000"/></mask><mask id="i" fill="#fff"><path d="m91.8244 47.3781-.3267.3266-18.4199 14.7409c-2.2826 1.7966-5.1042 2.7766-7.9993 2.7766-2.9032 0-5.6758-.98-7.9625-2.7766l-18.5791-14.4959-.5349-.5308c-.9351-1.225-.8126-2.9808.2899-4.0833 1.0576-1.1025 2.8134-1.225 4.0833-.2859l18.375 14.7c2.4051 1.9641 5.7983 1.9641 8.1667 0l18.4117-14.7c.6166-.5716 1.4333-.8616 2.2908-.8166.8126.0816 1.5925.4532 2.1601 1.0616 1.0208 1.1842 1.0208 2.8992.0449 4.0834z" fill="#fff"/></mask><path d="m66.8434 8.63574c-4.254-2.462-9.3143-3.11343-14.0531-1.84369l-34.9096 9.35405c-9.89801 2.6521-15.7408 12.7773-13.09906 22.6364l7.48016 27.9164c2.6418 9.8591 12.7997 15.6969 22.6623 13.0542l34.9097-9.354c9.8626-2.6427 15.7443-12.7782 13.1026-22.6373l-7.4802-27.9165c-1.2688-4.7352-4.3572-8.7556-8.6128-11.20956z" fill="url(#d)"/><g filter="url(#a)"><path d="m57.1741 17.8171c-2.684-1.6456-5.8583-2.113-8.8155-1.3207l-21.7859 5.8375c-6.1769 1.6552-9.7536 8.2335-8.0192 14.7066l4.9113 18.3291c1.7345 6.4731 8.1432 10.3759 14.2981 8.7267l21.7858-5.8375c6.1549-1.6492 9.7559-8.2341 8.0214-14.7072l-4.9112-18.329c-.8331-3.109-2.7998-5.765-5.4848-7.4055z" fill="#ef5641"/></g><g filter="url(#b)"><path d="m99.6192 27.0474c-3.875-3.8832-9.1425-6.0474-14.6183-6.0474h-40.3392c-11.4375 0-20.6617 9.2283-20.6617 20.6208v32.2584c0 11.3925 9.2651 20.6208 20.6617 20.6208h40.3392c11.3966 0 20.6661-9.2283 20.6661-20.6208v-32.2584c0-5.4716-2.169-10.6983-6.0478-14.5734z" fill="#ffac95" fill-opacity=".4"/><path d="m98.9114 27.7538c.3901.3909 1.0233.3916 1.4146.0015.391-.3901.391-1.0233.001-1.4142zm1.4146-1.4139c-.3908-.3903-1.0239-.3899-1.4142.0008-.3904.3907-.39 1.0239.0007 1.4142zm.001.0012c-4.0642-4.0729-9.5871-6.3411-15.3261-6.3411v2c5.2125 0 10.2246 2.0602 13.9105 5.7538zm-15.3261-6.3411h-40.3392v2h40.3392zm-40.3392 0c-11.9886 0-21.6617 9.6749-21.6617 21.6208h2c0-10.839 8.7754-19.6208 19.6617-19.6208zm-21.6617 21.6208v32.2584h2v-32.2584zm0 32.2584c0 11.9472 9.7152 21.6208 21.6617 21.6208v-2c-10.8468 0-19.6617-8.7831-19.6617-19.6208zm21.6617 21.6208h40.3392v-2h-40.3392zm40.3392 0c11.9462 0 21.6661-9.6733 21.6661-21.6208h-2c0 10.8375-8.8191 19.6208-19.6661 19.6208zm21.6661-21.6208v-32.2584h-2v32.2584zm0-32.2584c0-5.7375-2.274-11.2186-6.341-15.2809l-1.4135 1.415c3.6915 3.6879 5.7545 8.6602 5.7545 13.8659z" fill="url(#e)" mask="url(#h)"/></g><g filter="url(#c)"><path d="m91.8244 47.3781-.3267.3266-18.4199 14.7409c-2.2826 1.7966-5.1042 2.7766-7.9993 2.7766-2.9032 0-5.6758-.98-7.9625-2.7766l-18.5791-14.4959-.5349-.5308c-.9351-1.225-.8126-2.9808.2899-4.0833 1.0576-1.1025 2.8134-1.225 4.0833-.2859l18.375 14.7c2.4051 1.9641 5.7983 1.9641 8.1667 0l18.4117-14.7c.6166-.5716 1.4333-.8616 2.2908-.8166.8126.0816 1.5925.4532 2.1601 1.0616 1.0208 1.1842 1.0208 2.8992.0449 4.0834z" fill="url(#f)"/><path d="m91.4977 47.7047.125.1562.0086-.0069.0078-.0079zm-18.4199 14.7409.1237.1571.0013-.001zm-15.9618 0 .1236-.1573-.0005-.0004zm-18.5791-14.4959-.1409.142.0084.0084.0094.0073zm-.5349-.5308-.159.1213.0083.011.0098.0096zm.2899-4.0833.1414.1414.0029-.003zm4.0833-.2859.125-.1563-.0061-.0045zm18.375 14.7.1265-.1549-.0016-.0013zm8.1667 0-.1248-.1563-.0029.0024zm18.4117-14.7.1248.1563.0058-.0046.0054-.005zm2.2908-.8166.02-.1993-.0096-.0005zm2.1601 1.0616.1515-.1307-.0053-.0057zm-.0966 3.9419-.3266.3267.2828.2828.3267-.3266zm-.3102.312-18.4199 14.7408.25.3123 18.4199-14.7408zm-18.4186 14.7398c-2.2475 1.769-5.0256 2.7338-7.8756 2.7338v.4c2.9402 0 5.8053-.9952 8.123-2.8195zm-7.8756 2.7338c-2.8574 0-5.5867-.9643-7.8389-2.7339l-.2471.3145c2.3211 1.8237 5.137 2.8194 8.086 2.8194zm-7.8394-2.7343-18.5792-14.4959-.2461.3154 18.5792 14.4958zm-18.5614-14.4801-.5349-.5309-.2817.2839.5349.5309zm-.5168-.5103c-.8735-1.1443-.7602-2.7879.2724-3.8205l-.2829-.2829c-1.1723 1.1724-1.3041 3.0404-.3074 4.3461zm.2753-3.8235c.9843-1.0261 2.6268-1.146 3.8201-.2635l.2378-.3216c-1.3465-.9958-3.2157-.8707-4.3466.3082zm3.8141-.2681 18.375 14.7.2498-.3124-18.375-14.7zm18.3734 14.6987c2.4781 2.0238 5.9779 2.025 8.4208-.0009l-.2553-.3079c-2.2937 1.9022-5.5805 1.9034-7.9125-.001zm8.418.0014 18.4117-14.7-.2496-.3126-18.4117 14.7zm18.4229-14.7096c.5758-.5339 1.3392-.8058 2.1443-.7636l.0209-.3995c-.9098-.0476-1.7798.2603-2.4372.8698zm2.1348-.7644c.7661.0771 1.5006.4276 2.0338.9991l.2925-.2728c-.6019-.6453-1.4273-1.0379-2.2863-1.1242zm2.0286.9933c.9564 1.1095.9567 2.7156.042 3.8256l.3087.2543c1.0371-1.2584 1.0374-3.0823-.0478-4.3411z" fill="url(#g)" fill-opacity=".5" mask="url(#i)"/></g></svg>