<svg fill="none" height="99" viewBox="0 0 114 99" width="114" xmlns="http://www.w3.org/2000/svg" xmlns:xlink="http://www.w3.org/1999/xlink"><filter id="a" color-interpolation-filters="sRGB" filterUnits="userSpaceOnUse" height="55.4007" width="55.1633" x="50.463" y="30.9785"><feFlood flood-opacity="0" result="BackgroundImageFix"/><feBlend in="SourceGraphic" in2="BackgroundImageFix" mode="normal" result="shape"/><feGaussianBlur result="effect1_foregroundBlur_1_365" stdDeviation="7.5"/></filter><filter id="b" color-interpolation-filters="sRGB" filterUnits="userSpaceOnUse" height="139.348" width="118.89" x="-6.17029" y="-17.2623"><feFlood flood-opacity="0" result="BackgroundImageFix"/><feGaussianBlur in="BackgroundImageFix" stdDeviation="12"/><feComposite in2="SourceAlpha" operator="in" result="effect1_backgroundBlur_1_365"/><feBlend in="SourceGraphic" in2="effect1_backgroundBlur_1_365" mode="normal" result="shape"/></filter><filter id="c" color-interpolation-filters="sRGB" filterUnits="userSpaceOnUse" height="139.348" width="118.89" x="-6.17029" y="-17.2623"><feFlood flood-opacity="0" result="BackgroundImageFix"/><feGaussianBlur in="BackgroundImageFix" stdDeviation="12"/><feComposite in2="SourceAlpha" operator="in" result="effect1_backgroundBlur_1_365"/><feBlend in="SourceGraphic" in2="effect1_backgroundBlur_1_365" mode="normal" result="shape"/></filter><linearGradient id="d" gradientUnits="userSpaceOnUse" x1="113.972" x2="44.5179" y1="44.1603" y2="75.205"><stop offset="0" stop-color="#39affd"/><stop offset="1" stop-color="#477fff"/></linearGradient><linearGradient id="e" gradientUnits="userSpaceOnUse" x1="67.5914" x2="19.5113" y1="12.3363" y2="93.3382"><stop offset="0" stop-color="#fff" stop-opacity=".25"/><stop offset="1" stop-color="#fff" stop-opacity="0"/></linearGradient><mask id="f" fill="#000" height="101.654" maskUnits="userSpaceOnUse" width="101.654" x="-1.95466" y="-1.22474"><path d="m-1.95466-1.22474h101.654v101.654h-101.654z" fill="#fff"/><path clip-rule="evenodd" d="m86.5133 33.6006c-4.9723-18.5571-23.8866-29.61261-42.2462-24.69317-8.8166 2.36237-16.3235 8.16807-20.8693 16.13987s-5.7582 17.4567-3.3704 26.3682c4.9724 18.5571 23.8867 29.6126 42.2462 24.6932 18.3596-4.9195 29.2121-23.951 24.2397-42.5081zm-58.6821 44.7363-7.7593 10.6448-.1719.046c-1.4605 2.5613-.581 5.8438 1.9646 7.3317 2.5455 1.4879 5.7931.6177 7.2536-1.9436l5.6931-11.618c.5671-.9905.7189-2.1703.4219-3.2787-.297-1.1083-1.0183-2.0541-2.0047-2.6284-1.8967-1.0864-4.298-.443-5.3973 1.4462z" fill="#000" fill-rule="evenodd"/></mask><path clip-rule="evenodd" d="m55.7593 52.7059c3.3336-12.4409 16.0139-19.8526 28.3224-16.5546 5.9107 1.5838 10.9434 5.476 13.991 10.8204 3.0473 5.3444 3.8603 11.7032 2.2593 17.6775-3.3333 12.4409-16.0136 19.8526-28.3221 16.5546-12.3085-3.2981-19.5841-16.057-16.2506-28.4979zm39.3422 29.9904 5.2015 7.1363.116.0309c.979 1.7171.389 3.9178-1.3174 4.9153-1.7066.9974-3.8838.4141-4.863-1.3031l-3.8166-7.7888c-.3802-.6641-.482-1.455-.2829-2.198.1991-.7431.6827-1.3772 1.344-1.7622 1.2715-.7283 2.8814-.297 3.6184.9696z" fill="url(#d)" fill-rule="evenodd"/><g filter="url(#a)"><path d="m81.3348 46.4055c-6.7062-1.7969-13.615 2.2413-15.4312 9.0197-1.8163 6.7783 2.1478 13.7299 8.854 15.5268 6.7062 1.797 13.615-2.2413 15.4312-9.0196.8722-3.2551.4294-6.7196-1.2311-9.6315-1.6604-2.9118-4.4025-5.0325-7.6229-5.8954z" fill="#0062ff" fill-opacity=".5"/></g><g filter="url(#b)"><g filter="url(#c)"><path clip-rule="evenodd" d="m86.5133 33.6006c-4.9723-18.5571-23.8866-29.61261-42.2462-24.69317-8.8166 2.36237-16.3235 8.16807-20.8693 16.13987s-5.7582 17.4567-3.3704 26.3682c4.9724 18.5571 23.8867 29.6126 42.2462 24.6932 18.3596-4.9195 29.2121-23.951 24.2397-42.5081zm-58.6821 44.7363-7.7593 10.6448-.1719.046c-1.4605 2.5613-.581 5.8438 1.9646 7.3317 2.5455 1.4879 5.7931.6177 7.2536-1.9436l5.6931-11.618c.5671-.9905.7189-2.1703.4219-3.2787-.297-1.1083-1.0183-2.0541-2.0047-2.6284-1.8967-1.0864-4.298-.443-5.3973 1.4462z" fill="#3ea0fe" fill-opacity=".35" fill-rule="evenodd"/><path d="m23.3978 25.0473-.8687-.4953zm-3.3259 63.9344.8081.589c-.1346.1847-.3285.3177-.5492.3769zm7.7593-10.6448.8643.503c-.0172.0296-.036.0583-.0562.0861zm-7.9312 10.6908-.8686-.4953c.1323-.232.3519-.4015.6098-.4706zm1.9646 7.3317-.5047.8634zm7.2536-1.9436.898.44c-.0092.0188-.019.0372-.0293.0554zm5.6931-11.618-.898-.4401c.0094-.0192.0195-.0382.0301-.0568zm-1.5828-5.9071.497-.8677.0061.0035zm10.7798-68.9492c18.9028-5.06498 38.3583 6.3195 43.471 25.4003l-1.9319.5176c-4.832-18.0334-23.2051-28.75994-41.0215-23.98605zm-21.4792 16.6105c4.6773-8.2024 12.4031-14.1786 21.4792-16.6105l.5176 1.93185c-8.557 2.29285-15.8451 7.92815-20.2594 15.66935zm-3.4676 27.1223c-2.4556-9.1643-1.2095-18.9204 3.4676-27.1223l1.7374.9907c-4.4146 7.7416-5.5932 16.9554-3.2732 25.6139zm43.471 25.4003c-18.9028 5.065-38.3583-6.3195-43.471-25.4003l1.9318-.5177c4.8321 18.0335 23.2051 28.76 41.0215 23.9861zm24.9468-43.7328c5.1126 19.0808-6.0441 38.6678-24.9468 43.7328l-.5177-1.9319c17.8164-4.7739 28.3646-23.2499 23.5326-41.2833zm-68.2155 55.0508 7.7593-10.6447 1.6162 1.1781-7.7593 10.6447zm.3774-.3308.1719-.0461.5177 1.9319-.1719.0461zm1.7187 9.161c-3.0187-1.7645-4.0606-5.653-2.3285-8.6904l1.7373.9907c-1.189 2.0852-.4718 4.7617 1.6005 5.973zm8.627-2.3116c-1.7362 3.0447-5.601 4.0802-8.627 2.3116l1.0093-1.7267c2.0651 1.207 4.6954.5022 5.8803-1.5757zm5.7223-11.6734-5.693 11.618-1.796-.88 5.6931-11.6181zm.4899-3.9775c.3649 1.3618.179 2.8134-.52 4.0343l-1.7357-.9937c.4352-.7601.553-1.668.3239-2.523zm-2.4675-3.2338c1.2159.7079 2.1026 1.872 2.4675 3.2338l-1.9318.5176c-.2291-.8549-.7851-1.5823-1.542-2.023zm-6.7647 1.8075c1.3758-2.3643 4.385-3.1707 6.7586-1.811l-.9941 1.7354c-1.4197-.8132-3.213-.3327-4.0359 1.0815z" fill="url(#e)" mask="url(#f)"/></g></g></svg>