<svg fill="none" height="96" viewBox="0 0 101 96" width="101" xmlns="http://www.w3.org/2000/svg" xmlns:xlink="http://www.w3.org/1999/xlink"><filter id="a" color-interpolation-filters="sRGB" filterUnits="userSpaceOnUse" height="85.4641" width="85.4641" x="-8" y="-8"><feFlood flood-opacity="0" result="BackgroundImageFix"/><feGaussianBlur in="BackgroundImageFix" stdDeviation="6.5"/><feComposite in2="SourceAlpha" operator="in" result="effect1_backgroundBlur_1_623"/><feBlend in="SourceGraphic" in2="effect1_backgroundBlur_1_623" mode="normal" result="shape"/></filter><filter id="b" color-interpolation-filters="sRGB" filterUnits="userSpaceOnUse" height="69.0481" width="69.0481" x=".208008" y=".208984"><feFlood flood-opacity="0" result="BackgroundImageFix"/><feBlend in="SourceGraphic" in2="BackgroundImageFix" mode="normal" result="shape"/><feGaussianBlur result="effect1_foregroundBlur_1_623" stdDeviation="10"/></filter><filter id="c" color-interpolation-filters="sRGB" filterUnits="userSpaceOnUse" height="99.1725" width="122.297" x="-6.5957" y="11.0234"><feFlood flood-opacity="0" result="BackgroundImageFix"/><feGaussianBlur in="BackgroundImageFix" stdDeviation="7.5"/><feComposite in2="SourceAlpha" operator="in" result="effect1_backgroundBlur_1_623"/><feBlend in="SourceGraphic" in2="effect1_backgroundBlur_1_623" mode="normal" result="shape"/></filter><filter id="d" color-interpolation-filters="sRGB" filterUnits="userSpaceOnUse" height="56.4285" width="56.4285" x="26.3392" y="32.9454"><feFlood flood-opacity="0" result="BackgroundImageFix"/><feGaussianBlur in="BackgroundImageFix" stdDeviation="7.5"/><feComposite in2="SourceAlpha" operator="in" result="effect1_backgroundBlur_1_623"/><feColorMatrix in="SourceAlpha" result="hardAlpha" type="matrix" values="0 0 0 0 0 0 0 0 0 0 0 0 0 0 0 0 0 0 127 0"/><feOffset dx="5" dy="5"/><feGaussianBlur stdDeviation="5"/><feColorMatrix type="matrix" values="0 0 0 0 1 0 0 0 0 0.447059 0 0 0 0 0.368627 0 0 0 0.5 0"/><feBlend in2="effect1_backgroundBlur_1_623" mode="normal" result="effect2_dropShadow_1_623"/><feBlend in="SourceGraphic" in2="effect2_dropShadow_1_623" mode="normal" result="shape"/></filter><linearGradient id="e" gradientUnits="userSpaceOnUse" x1="39.1098" x2="-13.1407" y1="38.714" y2="64.1194"><stop offset="0" stop-color="#ffa78f"/><stop offset="1" stop-color="#f23e2c"/></linearGradient><linearGradient id="f" gradientUnits="userSpaceOnUse" x1="23.7782" x2="62.4737" y1="34.8491" y2="99.2733"><stop offset="0" stop-color="#fff" stop-opacity=".25"/><stop offset="1" stop-color="#fff" stop-opacity="0"/></linearGradient><linearGradient id="g" gradientUnits="userSpaceOnUse" x1="65.8939" x2="36.4551" y1="52.7179" y2="53.6777"><stop offset="0" stop-color="#fff"/><stop offset="1" stop-color="#fff" stop-opacity=".2"/></linearGradient><linearGradient id="h" gradientUnits="userSpaceOnUse" x1="66.6353" x2="40.9409" y1="61.7187" y2="62.7891"><stop offset="0" stop-color="#fff"/><stop offset="1" stop-color="#fff" stop-opacity="0"/></linearGradient><mask id="i" fill="#000" height="70" maskUnits="userSpaceOnUse" width="93" x="8.4043" y="26.0234"><path d="m8.4043 26.0234h93v70h-93z" fill="#fff"/><path clip-rule="evenodd" d="m99.4374 59.3883c-4.7131-10.1369-11.2762-18.2383-18.9845-23.7749-7.7083-5.5774-16.5618-8.59-25.8999-8.59h-.0441c-18.632 0-35.4142 12.0911-44.84032 32.3649-.35238.7735-.35238 1.6692 0 2.402 9.42612 20.2738 26.20832 32.4056 44.84032 32.4056h.0441c18.6761 0 35.4582-12.1318 44.8844-32.4056.3524-.7328.3524-1.6285 0-2.402z" fill="#000" fill-rule="evenodd"/></mask><g filter="url(#a)"><path d="m34.7321 5c-16.4121 0-29.7321 13.3229-29.7321 29.7321 0 16.415 13.32 29.732 29.7321 29.732 16.4418 0 29.732-13.317 29.732-29.732 0-16.4092-13.2902-29.7321-29.732-29.7321z" fill="url(#e)"/></g><g filter="url(#b)" opacity=".5"><path d="m34.7321 20.209c-8.0173 0-14.5241 6.5082-14.5241 14.524 0 8.0188 6.5068 14.5241 14.5241 14.5241 8.0318 0 14.524-6.5053 14.524-14.5241 0-8.0158-6.4922-14.524-14.524-14.524z" fill="#ff3d22"/></g><g filter="url(#c)"><path clip-rule="evenodd" d="m99.4374 59.3883c-4.7131-10.1369-11.2762-18.2383-18.9845-23.7749-7.7083-5.5774-16.5618-8.59-25.8999-8.59h-.0441c-18.632 0-35.4142 12.0911-44.84032 32.3649-.35238.7735-.35238 1.6692 0 2.402 9.42612 20.2738 26.20832 32.4056 44.84032 32.4056h.0441c18.6761 0 35.4582-12.1318 44.8844-32.4056.3524-.7328.3524-1.6285 0-2.402z" fill="#ffac95" fill-opacity=".4" fill-rule="evenodd"/><path d="m98.5306 59.8099c.2329.5008.8276.7181 1.3284.4852.501-.2328.718-.8276.485-1.3284zm-18.0777-24.1965-.5862.8101.0029.0021zm-70.78432 23.7749-.90681-.4216-.0032.0071zm0 2.402.90682-.4217-.0056-.0117zm89.76882 0-.9013-.4334-.0055.0118zm.9096-2.8165c-.229-.5026-.8216-.7244-1.3242-.4955-.5026.229-.7244.822-.4954 1.3246zm-.003-.0071c-4.7758-10.2722-11.4425-18.5162-19.3077-24.1655l-1.1667 1.6244c7.5514 5.4239 14.0108 13.3827 18.661 23.3843zm-19.3049-24.1635c-7.8684-5.6932-16.925-8.7798-26.4861-8.7798v2c9.1151 0 17.7656 2.9387 25.3137 8.4001zm-26.4861-8.7798h-.0441v2h.0441zm-.0441 0c-19.1074 0-36.1967 12.4023-45.7471 32.9433l1.8136.8432c9.3019-20.0067 25.7768-31.7865 43.9335-31.7865zm-45.75033 32.9504c-.46896 1.0294-.47869 2.2361.0088 3.2498l1.80243-.8667c-.2173-.4518-.227-1.0364.0088-1.554zm.00323 3.2381c9.5498 20.5396 26.6385 32.984 45.7471 32.984v-2c-18.1555 0-34.631-11.8192-43.9335-31.8272zm45.7471 32.984h.0441v-2h-.0441zm.0441 0c19.1522 0 36.2412-12.4438 45.791-32.984l-1.8134-.8432c-9.3023 20.0075-25.7776 31.8272-43.9776 31.8272zm45.786-32.9723c.487-1.0137.477-2.2204.008-3.2498l-1.8196.8291c.2358.5176.2261 1.1022.0088 1.554z" fill="url(#f)" mask="url(#i)"/></g><g filter="url(#d)"><path d="m67.7677 61.1862c0 7.2559-5.9319 13.1877-13.1878 13.1877-7.3089 0-13.2407-5.9318-13.2407-13.1877 0-.9004.1059-1.7478.2648-2.5952h.2648c5.8789 0 10.6456-4.6608 10.8574-10.4867.5826-.1059 1.2182-.1589 1.8537-.1589 7.2559 0 13.1878 5.9319 13.1878 13.2408z" fill="url(#g)"/><path d="m67.6677 61.1862c0 7.2007-5.8871 13.0877-13.0878 13.0877-7.2539 0-13.1407-5.8873-13.1407-13.0877 0-.8636.0983-1.6791.2479-2.4952h.1817c5.906 0 10.6994-4.6608 10.9541-10.5022.5544-.0955 1.1554-.1434 1.757-.1434 7.2004 0 13.0878 5.8869 13.0878 13.1408z" stroke="url(#h)" stroke-opacity=".5" stroke-width=".2"/></g></svg>